<?xml version="1.0" encoding="UTF-8" standalone="no"?>
<!DOCTYPE svg PUBLIC "-//W3C//DTD SVG 1.1//EN"
 "http://www.w3.org/Graphics/SVG/1.1/DTD/svg11.dtd">
<!-- Generated by graphviz version 2.50.0 (0)
 -->
<!-- Title: snakemake_dag Pages: 1 -->
<svg width="1862pt" height="420pt"
 viewBox="0.00 0.00 1862.00 420.00" xmlns="http://www.w3.org/2000/svg" xmlns:xlink="http://www.w3.org/1999/xlink">
<g id="graph0" class="graph" transform="scale(1 1) rotate(0) translate(4 416)">
<title>snakemake_dag</title>
<polygon fill="white" stroke="transparent" points="-4,4 -4,-416 1858,-416 1858,4 -4,4"/>
<!-- 0 -->
<g id="node1" class="node">
<title>0</title>
<path fill="none" stroke="#56d8c1" stroke-width="2" d="M936,-36C936,-36 906,-36 906,-36 900,-36 894,-30 894,-24 894,-24 894,-12 894,-12 894,-6 900,0 906,0 906,0 936,0 936,0 942,0 948,-6 948,-12 948,-12 948,-24 948,-24 948,-30 942,-36 936,-36"/>
<text text-anchor="middle" x="921" y="-15.5" font-family="sans" font-size="10.00">all</text>
</g>
<!-- 1 -->
<g id="node2" class="node">
<title>1</title>
<path fill="none" stroke="#bed856" stroke-width="2" d="M958.5,-108C958.5,-108 883.5,-108 883.5,-108 877.5,-108 871.5,-102 871.5,-96 871.5,-96 871.5,-84 871.5,-84 871.5,-78 877.5,-72 883.5,-72 883.5,-72 958.5,-72 958.5,-72 964.5,-72 970.5,-78 970.5,-84 970.5,-84 970.5,-96 970.5,-96 970.5,-102 964.5,-108 958.5,-108"/>
<text text-anchor="middle" x="921" y="-87.5" font-family="sans" font-size="10.00">combine_actions</text>
</g>
<!-- 1&#45;&gt;0 -->
<g id="edge1" class="edge">
<title>1&#45;&gt;0</title>
<path fill="none" stroke="grey" stroke-width="2" d="M921,-71.7C921,-63.98 921,-54.71 921,-46.11"/>
<polygon fill="grey" stroke="grey" stroke-width="2" points="924.5,-46.1 921,-36.1 917.5,-46.1 924.5,-46.1"/>
</g>
<!-- 2 -->
<g id="node3" class="node">
<title>2</title>
<path fill="none" stroke="#56c1d8" stroke-width="2" d="M578.5,-180C578.5,-180 511.5,-180 511.5,-180 505.5,-180 499.5,-174 499.5,-168 499.5,-168 499.5,-156 499.5,-156 499.5,-150 505.5,-144 511.5,-144 511.5,-144 578.5,-144 578.5,-144 584.5,-144 590.5,-150 590.5,-156 590.5,-156 590.5,-168 590.5,-168 590.5,-174 584.5,-180 578.5,-180"/>
<text text-anchor="middle" x="545" y="-159.5" font-family="sans" font-size="10.00">get_action_line</text>
</g>
<!-- 2&#45;&gt;0 -->
<g id="edge2" class="edge">
<title>2&#45;&gt;0</title>
<path fill="none" stroke="grey" stroke-width="2" d="M578.74,-143.93C617.32,-124.82 682.68,-93.7 741,-72 789.56,-53.93 847.26,-37.85 884,-28.27"/>
<polygon fill="grey" stroke="grey" stroke-width="2" points="884.97,-31.63 893.78,-25.74 883.22,-24.86 884.97,-31.63"/>
</g>
<!-- 2&#45;&gt;1 -->
<g id="edge10" class="edge">
<title>2&#45;&gt;1</title>
<path fill="none" stroke="grey" stroke-width="2" d="M590.54,-146.16C593.39,-145.39 596.23,-144.66 599,-144 689.5,-122.42 796.39,-106.72 861.4,-98.23"/>
<polygon fill="grey" stroke="grey" stroke-width="2" points="862,-101.68 871.47,-96.93 861.1,-94.74 862,-101.68"/>
</g>
<!-- 3 -->
<g id="node4" class="node">
<title>3</title>
<path fill="none" stroke="#568ad8" stroke-width="2" d="M554.5,-252C554.5,-252 479.5,-252 479.5,-252 473.5,-252 467.5,-246 467.5,-240 467.5,-240 467.5,-228 467.5,-228 467.5,-222 473.5,-216 479.5,-216 479.5,-216 554.5,-216 554.5,-216 560.5,-216 566.5,-222 566.5,-228 566.5,-228 566.5,-240 566.5,-240 566.5,-246 560.5,-252 554.5,-252"/>
<text text-anchor="middle" x="517" y="-231.5" font-family="sans" font-size="10.00">get_summarylist</text>
</g>
<!-- 3&#45;&gt;2 -->
<g id="edge18" class="edge">
<title>3&#45;&gt;2</title>
<path fill="none" stroke="grey" stroke-width="2" d="M523.92,-215.7C527.07,-207.81 530.88,-198.3 534.38,-189.55"/>
<polygon fill="grey" stroke="grey" stroke-width="2" points="537.69,-190.69 538.16,-180.1 531.19,-188.09 537.69,-190.69"/>
</g>
<!-- 4 -->
<g id="node5" class="node">
<title>4</title>
<path fill="none" stroke="#56d88a" stroke-width="2" stroke-dasharray="5,2" d="M543.5,-324C543.5,-324 490.5,-324 490.5,-324 484.5,-324 478.5,-318 478.5,-312 478.5,-312 478.5,-300 478.5,-300 478.5,-294 484.5,-288 490.5,-288 490.5,-288 543.5,-288 543.5,-288 549.5,-288 555.5,-294 555.5,-300 555.5,-300 555.5,-312 555.5,-312 555.5,-318 549.5,-324 543.5,-324"/>
<text text-anchor="middle" x="517" y="-303.5" font-family="sans" font-size="10.00">get_haptags</text>
</g>
<!-- 4&#45;&gt;3 -->
<g id="edge19" class="edge">
<title>4&#45;&gt;3</title>
<path fill="none" stroke="grey" stroke-width="2" d="M517,-287.7C517,-279.98 517,-270.71 517,-262.11"/>
<polygon fill="grey" stroke="grey" stroke-width="2" points="520.5,-262.1 517,-252.1 513.5,-262.1 520.5,-262.1"/>
</g>
<!-- 5 -->
<g id="node6" class="node">
<title>5</title>
<path fill="none" stroke="#d88d56" stroke-width="2" stroke-dasharray="5,2" d="M178,-412C178,-412 12,-412 12,-412 6,-412 0,-406 0,-400 0,-400 0,-372 0,-372 0,-366 6,-360 12,-360 12,-360 178,-360 178,-360 184,-360 190,-366 190,-372 190,-372 190,-400 190,-400 190,-406 184,-412 178,-412"/>
<text text-anchor="middle" x="95" y="-400" font-family="sans" font-size="10.00">get_bam</text>
<text text-anchor="middle" x="95" y="-389" font-family="sans" font-size="10.00">hap: 1</text>
<text text-anchor="middle" x="95" y="-378" font-family="sans" font-size="10.00">region: chr1&#45;119747586&#45;121609789</text>
<text text-anchor="middle" x="95" y="-367" font-family="sans" font-size="10.00">sample: GM19129</text>
</g>
<!-- 5&#45;&gt;4 -->
<g id="edge20" class="edge">
<title>5&#45;&gt;4</title>
<path fill="none" stroke="grey" stroke-width="2" d="M190.15,-361.84C193.13,-361.21 196.09,-360.59 199,-360 293.82,-340.73 405.59,-323.31 468.18,-314.04"/>
<polygon fill="grey" stroke="grey" stroke-width="2" points="468.78,-317.49 478.17,-312.57 467.76,-310.56 468.78,-317.49"/>
</g>
<!-- 6 -->
<g id="node7" class="node">
<title>6</title>
<path fill="none" stroke="#59d856" stroke-width="2" stroke-dasharray="5,2" d="M1010,-404C1010,-404 844,-404 844,-404 838,-404 832,-398 832,-392 832,-392 832,-380 832,-380 832,-374 838,-368 844,-368 844,-368 1010,-368 1010,-368 1016,-368 1022,-374 1022,-380 1022,-380 1022,-392 1022,-392 1022,-398 1016,-404 1010,-404"/>
<text text-anchor="middle" x="927" y="-389" font-family="sans" font-size="10.00">subset_vcf_to_region</text>
<text text-anchor="middle" x="927" y="-378" font-family="sans" font-size="10.00">region: chr1&#45;119747586&#45;121609789</text>
</g>
<!-- 6&#45;&gt;4 -->
<g id="edge21" class="edge">
<title>6&#45;&gt;4</title>
<path fill="none" stroke="grey" stroke-width="2" d="M859.77,-367.95C847.57,-365.11 834.94,-362.34 823,-360 718.44,-339.53 690.5,-344.77 586,-324 579.33,-322.68 572.34,-321.13 565.47,-319.53"/>
<polygon fill="grey" stroke="grey" stroke-width="2" points="566.09,-316.08 555.54,-317.15 564.45,-322.88 566.09,-316.08"/>
</g>
<!-- 9 -->
<g id="node10" class="node">
<title>9</title>
<path fill="none" stroke="#56d88a" stroke-width="2" stroke-dasharray="5,2" d="M660.5,-324C660.5,-324 607.5,-324 607.5,-324 601.5,-324 595.5,-318 595.5,-312 595.5,-312 595.5,-300 595.5,-300 595.5,-294 601.5,-288 607.5,-288 607.5,-288 660.5,-288 660.5,-288 666.5,-288 672.5,-294 672.5,-300 672.5,-300 672.5,-312 672.5,-312 672.5,-318 666.5,-324 660.5,-324"/>
<text text-anchor="middle" x="634" y="-303.5" font-family="sans" font-size="10.00">get_haptags</text>
</g>
<!-- 6&#45;&gt;9 -->
<g id="edge25" class="edge">
<title>6&#45;&gt;9</title>
<path fill="none" stroke="grey" stroke-width="2" d="M863.06,-367.98C808.71,-353.51 731.86,-333.05 682.47,-319.9"/>
<polygon fill="grey" stroke="grey" stroke-width="2" points="683.23,-316.48 672.67,-317.29 681.43,-323.25 683.23,-316.48"/>
</g>
<!-- 13 -->
<g id="node14" class="node">
<title>13</title>
<path fill="none" stroke="#56d88a" stroke-width="2" stroke-dasharray="5,2" d="M777.5,-324C777.5,-324 724.5,-324 724.5,-324 718.5,-324 712.5,-318 712.5,-312 712.5,-312 712.5,-300 712.5,-300 712.5,-294 718.5,-288 724.5,-288 724.5,-288 777.5,-288 777.5,-288 783.5,-288 789.5,-294 789.5,-300 789.5,-300 789.5,-312 789.5,-312 789.5,-318 783.5,-324 777.5,-324"/>
<text text-anchor="middle" x="751" y="-303.5" font-family="sans" font-size="10.00">get_haptags</text>
</g>
<!-- 6&#45;&gt;13 -->
<g id="edge29" class="edge">
<title>6&#45;&gt;13</title>
<path fill="none" stroke="grey" stroke-width="2" d="M888.38,-367.88C862.01,-356.2 826.91,-340.64 798.78,-328.18"/>
<polygon fill="grey" stroke="grey" stroke-width="2" points="800.09,-324.93 789.53,-324.08 797.26,-331.33 800.09,-324.93"/>
</g>
<!-- 17 -->
<g id="node18" class="node">
<title>17</title>
<path fill="none" stroke="#56d88a" stroke-width="2" stroke-dasharray="5,2" d="M894.5,-324C894.5,-324 841.5,-324 841.5,-324 835.5,-324 829.5,-318 829.5,-312 829.5,-312 829.5,-300 829.5,-300 829.5,-294 835.5,-288 841.5,-288 841.5,-288 894.5,-288 894.5,-288 900.5,-288 906.5,-294 906.5,-300 906.5,-300 906.5,-312 906.5,-312 906.5,-318 900.5,-324 894.5,-324"/>
<text text-anchor="middle" x="868" y="-303.5" font-family="sans" font-size="10.00">get_haptags</text>
</g>
<!-- 6&#45;&gt;17 -->
<g id="edge33" class="edge">
<title>6&#45;&gt;17</title>
<path fill="none" stroke="grey" stroke-width="2" d="M913.91,-367.69C906.04,-357.29 895.89,-343.87 887.13,-332.29"/>
<polygon fill="grey" stroke="grey" stroke-width="2" points="889.88,-330.13 881.06,-324.26 884.3,-334.35 889.88,-330.13"/>
</g>
<!-- 21 -->
<g id="node22" class="node">
<title>21</title>
<path fill="none" stroke="#56d88a" stroke-width="2" stroke-dasharray="5,2" d="M1011.5,-324C1011.5,-324 958.5,-324 958.5,-324 952.5,-324 946.5,-318 946.5,-312 946.5,-312 946.5,-300 946.5,-300 946.5,-294 952.5,-288 958.5,-288 958.5,-288 1011.5,-288 1011.5,-288 1017.5,-288 1023.5,-294 1023.5,-300 1023.5,-300 1023.5,-312 1023.5,-312 1023.5,-318 1017.5,-324 1011.5,-324"/>
<text text-anchor="middle" x="985" y="-303.5" font-family="sans" font-size="10.00">get_haptags</text>
</g>
<!-- 6&#45;&gt;21 -->
<g id="edge37" class="edge">
<title>6&#45;&gt;21</title>
<path fill="none" stroke="grey" stroke-width="2" d="M939.87,-367.69C947.61,-357.29 957.58,-343.87 966.19,-332.29"/>
<polygon fill="grey" stroke="grey" stroke-width="2" points="969.01,-334.38 972.16,-324.26 963.39,-330.2 969.01,-334.38"/>
</g>
<!-- 25 -->
<g id="node26" class="node">
<title>25</title>
<path fill="none" stroke="#56d88a" stroke-width="2" stroke-dasharray="5,2" d="M1128.5,-324C1128.5,-324 1075.5,-324 1075.5,-324 1069.5,-324 1063.5,-318 1063.5,-312 1063.5,-312 1063.5,-300 1063.5,-300 1063.5,-294 1069.5,-288 1075.5,-288 1075.5,-288 1128.5,-288 1128.5,-288 1134.5,-288 1140.5,-294 1140.5,-300 1140.5,-300 1140.5,-312 1140.5,-312 1140.5,-318 1134.5,-324 1128.5,-324"/>
<text text-anchor="middle" x="1102" y="-303.5" font-family="sans" font-size="10.00">get_haptags</text>
</g>
<!-- 6&#45;&gt;25 -->
<g id="edge41" class="edge">
<title>6&#45;&gt;25</title>
<path fill="none" stroke="grey" stroke-width="2" d="M965.4,-367.88C991.62,-356.2 1026.53,-340.64 1054.49,-328.18"/>
<polygon fill="grey" stroke="grey" stroke-width="2" points="1055.98,-331.35 1063.69,-324.08 1053.13,-324.95 1055.98,-331.35"/>
</g>
<!-- 29 -->
<g id="node30" class="node">
<title>29</title>
<path fill="none" stroke="#56d88a" stroke-width="2" stroke-dasharray="5,2" d="M1245.5,-324C1245.5,-324 1192.5,-324 1192.5,-324 1186.5,-324 1180.5,-318 1180.5,-312 1180.5,-312 1180.5,-300 1180.5,-300 1180.5,-294 1186.5,-288 1192.5,-288 1192.5,-288 1245.5,-288 1245.5,-288 1251.5,-288 1257.5,-294 1257.5,-300 1257.5,-300 1257.5,-312 1257.5,-312 1257.5,-318 1251.5,-324 1245.5,-324"/>
<text text-anchor="middle" x="1219" y="-303.5" font-family="sans" font-size="10.00">get_haptags</text>
</g>
<!-- 6&#45;&gt;29 -->
<g id="edge45" class="edge">
<title>6&#45;&gt;29</title>
<path fill="none" stroke="grey" stroke-width="2" d="M990.72,-367.98C1044.88,-353.51 1121.48,-333.05 1170.7,-319.9"/>
<polygon fill="grey" stroke="grey" stroke-width="2" points="1171.7,-323.26 1180.46,-317.29 1169.9,-316.49 1171.7,-323.26"/>
</g>
<!-- 33 -->
<g id="node34" class="node">
<title>33</title>
<path fill="none" stroke="#56d88a" stroke-width="2" stroke-dasharray="5,2" d="M1362.5,-324C1362.5,-324 1309.5,-324 1309.5,-324 1303.5,-324 1297.5,-318 1297.5,-312 1297.5,-312 1297.5,-300 1297.5,-300 1297.5,-294 1303.5,-288 1309.5,-288 1309.5,-288 1362.5,-288 1362.5,-288 1368.5,-288 1374.5,-294 1374.5,-300 1374.5,-300 1374.5,-312 1374.5,-312 1374.5,-318 1368.5,-324 1362.5,-324"/>
<text text-anchor="middle" x="1336" y="-303.5" font-family="sans" font-size="10.00">get_haptags</text>
</g>
<!-- 6&#45;&gt;33 -->
<g id="edge49" class="edge">
<title>6&#45;&gt;33</title>
<path fill="none" stroke="grey" stroke-width="2" d="M994.23,-367.96C1006.43,-365.12 1019.06,-362.34 1031,-360 1135.12,-339.58 1162.94,-344.71 1267,-324 1273.67,-322.67 1280.66,-321.13 1287.53,-319.53"/>
<polygon fill="grey" stroke="grey" stroke-width="2" points="1288.54,-322.88 1297.45,-317.15 1286.91,-316.07 1288.54,-322.88"/>
</g>
<!-- 7 -->
<g id="node8" class="node">
<title>7</title>
<path fill="none" stroke="#56c1d8" stroke-width="2" d="M687.5,-180C687.5,-180 620.5,-180 620.5,-180 614.5,-180 608.5,-174 608.5,-168 608.5,-168 608.5,-156 608.5,-156 608.5,-150 614.5,-144 620.5,-144 620.5,-144 687.5,-144 687.5,-144 693.5,-144 699.5,-150 699.5,-156 699.5,-156 699.5,-168 699.5,-168 699.5,-174 693.5,-180 687.5,-180"/>
<text text-anchor="middle" x="654" y="-159.5" font-family="sans" font-size="10.00">get_action_line</text>
</g>
<!-- 7&#45;&gt;0 -->
<g id="edge3" class="edge">
<title>7&#45;&gt;0</title>
<path fill="none" stroke="grey" stroke-width="2" d="M682.41,-143.96C713.41,-125.56 764.69,-95.7 810,-72 834.56,-59.15 862.75,-45.71 884.57,-35.58"/>
<polygon fill="grey" stroke="grey" stroke-width="2" points="886.2,-38.68 893.81,-31.31 883.27,-32.32 886.2,-38.68"/>
</g>
<!-- 7&#45;&gt;1 -->
<g id="edge11" class="edge">
<title>7&#45;&gt;1</title>
<path fill="none" stroke="grey" stroke-width="2" d="M699.56,-146.71C702.75,-145.77 705.92,-144.86 709,-144 760.08,-129.73 818.59,-115.24 861.18,-105.03"/>
<polygon fill="grey" stroke="grey" stroke-width="2" points="862.2,-108.38 871.11,-102.66 860.57,-101.58 862.2,-108.38"/>
</g>
<!-- 8 -->
<g id="node9" class="node">
<title>8</title>
<path fill="none" stroke="#568ad8" stroke-width="2" d="M671.5,-252C671.5,-252 596.5,-252 596.5,-252 590.5,-252 584.5,-246 584.5,-240 584.5,-240 584.5,-228 584.5,-228 584.5,-222 590.5,-216 596.5,-216 596.5,-216 671.5,-216 671.5,-216 677.5,-216 683.5,-222 683.5,-228 683.5,-228 683.5,-240 683.5,-240 683.5,-246 677.5,-252 671.5,-252"/>
<text text-anchor="middle" x="634" y="-231.5" font-family="sans" font-size="10.00">get_summarylist</text>
</g>
<!-- 8&#45;&gt;7 -->
<g id="edge22" class="edge">
<title>8&#45;&gt;7</title>
<path fill="none" stroke="grey" stroke-width="2" d="M638.94,-215.7C641.17,-207.9 643.85,-198.51 646.33,-189.83"/>
<polygon fill="grey" stroke="grey" stroke-width="2" points="649.73,-190.68 649.11,-180.1 643,-188.76 649.73,-190.68"/>
</g>
<!-- 9&#45;&gt;8 -->
<g id="edge23" class="edge">
<title>9&#45;&gt;8</title>
<path fill="none" stroke="grey" stroke-width="2" d="M634,-287.7C634,-279.98 634,-270.71 634,-262.11"/>
<polygon fill="grey" stroke="grey" stroke-width="2" points="637.5,-262.1 634,-252.1 630.5,-262.1 637.5,-262.1"/>
</g>
<!-- 10 -->
<g id="node11" class="node">
<title>10</title>
<path fill="none" stroke="#d88d56" stroke-width="2" stroke-dasharray="5,2" d="M386,-412C386,-412 220,-412 220,-412 214,-412 208,-406 208,-400 208,-400 208,-372 208,-372 208,-366 214,-360 220,-360 220,-360 386,-360 386,-360 392,-360 398,-366 398,-372 398,-372 398,-400 398,-400 398,-406 392,-412 386,-412"/>
<text text-anchor="middle" x="303" y="-400" font-family="sans" font-size="10.00">get_bam</text>
<text text-anchor="middle" x="303" y="-389" font-family="sans" font-size="10.00">hap: 2</text>
<text text-anchor="middle" x="303" y="-378" font-family="sans" font-size="10.00">region: chr1&#45;119747586&#45;121609789</text>
<text text-anchor="middle" x="303" y="-367" font-family="sans" font-size="10.00">sample: GM19129</text>
</g>
<!-- 10&#45;&gt;9 -->
<g id="edge24" class="edge">
<title>10&#45;&gt;9</title>
<path fill="none" stroke="grey" stroke-width="2" d="M398.21,-362.07C401.17,-361.37 404.11,-360.68 407,-360 476.69,-343.63 494.33,-340.45 564,-324 570.79,-322.4 577.94,-320.69 584.98,-318.99"/>
<polygon fill="grey" stroke="grey" stroke-width="2" points="586.25,-322.28 595.14,-316.53 584.6,-315.48 586.25,-322.28"/>
</g>
<!-- 11 -->
<g id="node12" class="node">
<title>11</title>
<path fill="none" stroke="#56c1d8" stroke-width="2" d="M796.5,-180C796.5,-180 729.5,-180 729.5,-180 723.5,-180 717.5,-174 717.5,-168 717.5,-168 717.5,-156 717.5,-156 717.5,-150 723.5,-144 729.5,-144 729.5,-144 796.5,-144 796.5,-144 802.5,-144 808.5,-150 808.5,-156 808.5,-156 808.5,-168 808.5,-168 808.5,-174 802.5,-180 796.5,-180"/>
<text text-anchor="middle" x="763" y="-159.5" font-family="sans" font-size="10.00">get_action_line</text>
</g>
<!-- 11&#45;&gt;0 -->
<g id="edge4" class="edge">
<title>11&#45;&gt;0</title>
<path fill="none" stroke="grey" stroke-width="2" d="M779.03,-144C796.61,-125.62 825.93,-95.79 853,-72 864.58,-61.82 877.85,-51.26 889.58,-42.26"/>
<polygon fill="grey" stroke="grey" stroke-width="2" points="891.95,-44.85 897.79,-36.02 887.71,-39.28 891.95,-44.85"/>
</g>
<!-- 11&#45;&gt;1 -->
<g id="edge12" class="edge">
<title>11&#45;&gt;1</title>
<path fill="none" stroke="grey" stroke-width="2" d="M801.65,-143.88C823.25,-134.31 850.35,-122.3 873.27,-112.15"/>
<polygon fill="grey" stroke="grey" stroke-width="2" points="874.75,-115.32 882.47,-108.07 871.91,-108.92 874.75,-115.32"/>
</g>
<!-- 12 -->
<g id="node13" class="node">
<title>12</title>
<path fill="none" stroke="#568ad8" stroke-width="2" d="M788.5,-252C788.5,-252 713.5,-252 713.5,-252 707.5,-252 701.5,-246 701.5,-240 701.5,-240 701.5,-228 701.5,-228 701.5,-222 707.5,-216 713.5,-216 713.5,-216 788.5,-216 788.5,-216 794.5,-216 800.5,-222 800.5,-228 800.5,-228 800.5,-240 800.5,-240 800.5,-246 794.5,-252 788.5,-252"/>
<text text-anchor="middle" x="751" y="-231.5" font-family="sans" font-size="10.00">get_summarylist</text>
</g>
<!-- 12&#45;&gt;11 -->
<g id="edge26" class="edge">
<title>12&#45;&gt;11</title>
<path fill="none" stroke="grey" stroke-width="2" d="M753.97,-215.7C755.29,-207.98 756.88,-198.71 758.35,-190.11"/>
<polygon fill="grey" stroke="grey" stroke-width="2" points="761.83,-190.55 760.07,-180.1 754.93,-189.37 761.83,-190.55"/>
</g>
<!-- 13&#45;&gt;12 -->
<g id="edge27" class="edge">
<title>13&#45;&gt;12</title>
<path fill="none" stroke="grey" stroke-width="2" d="M751,-287.7C751,-279.98 751,-270.71 751,-262.11"/>
<polygon fill="grey" stroke="grey" stroke-width="2" points="754.5,-262.1 751,-252.1 747.5,-262.1 754.5,-262.1"/>
</g>
<!-- 14 -->
<g id="node15" class="node">
<title>14</title>
<path fill="none" stroke="#d88d56" stroke-width="2" stroke-dasharray="5,2" d="M594,-412C594,-412 428,-412 428,-412 422,-412 416,-406 416,-400 416,-400 416,-372 416,-372 416,-366 422,-360 428,-360 428,-360 594,-360 594,-360 600,-360 606,-366 606,-372 606,-372 606,-400 606,-400 606,-406 600,-412 594,-412"/>
<text text-anchor="middle" x="511" y="-400" font-family="sans" font-size="10.00">get_bam</text>
<text text-anchor="middle" x="511" y="-389" font-family="sans" font-size="10.00">hap: 1</text>
<text text-anchor="middle" x="511" y="-378" font-family="sans" font-size="10.00">region: chr1&#45;119747586&#45;121609789</text>
<text text-anchor="middle" x="511" y="-367" font-family="sans" font-size="10.00">sample: GM19434</text>
</g>
<!-- 14&#45;&gt;13 -->
<g id="edge28" class="edge">
<title>14&#45;&gt;13</title>
<path fill="none" stroke="grey" stroke-width="2" d="M587.93,-360C625.58,-347.76 669.75,-333.41 702.62,-322.73"/>
<polygon fill="grey" stroke="grey" stroke-width="2" points="704,-325.95 712.43,-319.53 701.84,-319.3 704,-325.95"/>
</g>
<!-- 15 -->
<g id="node16" class="node">
<title>15</title>
<path fill="none" stroke="#56c1d8" stroke-width="2" d="M905.5,-180C905.5,-180 838.5,-180 838.5,-180 832.5,-180 826.5,-174 826.5,-168 826.5,-168 826.5,-156 826.5,-156 826.5,-150 832.5,-144 838.5,-144 838.5,-144 905.5,-144 905.5,-144 911.5,-144 917.5,-150 917.5,-156 917.5,-156 917.5,-168 917.5,-168 917.5,-174 911.5,-180 905.5,-180"/>
<text text-anchor="middle" x="872" y="-159.5" font-family="sans" font-size="10.00">get_action_line</text>
</g>
<!-- 15&#45;&gt;0 -->
<g id="edge5" class="edge">
<title>15&#45;&gt;0</title>
<path fill="none" stroke="grey" stroke-width="2" d="M865.37,-143.81C859.31,-125.28 852.73,-95.31 863,-72 868.03,-60.59 876.86,-50.57 886.14,-42.41"/>
<polygon fill="grey" stroke="grey" stroke-width="2" points="888.45,-45.04 893.96,-35.99 884.01,-39.62 888.45,-45.04"/>
</g>
<!-- 15&#45;&gt;1 -->
<g id="edge13" class="edge">
<title>15&#45;&gt;1</title>
<path fill="none" stroke="grey" stroke-width="2" d="M884.11,-143.7C889.87,-135.47 896.86,-125.48 903.21,-116.42"/>
<polygon fill="grey" stroke="grey" stroke-width="2" points="906.16,-118.3 909.03,-108.1 900.42,-114.29 906.16,-118.3"/>
</g>
<!-- 16 -->
<g id="node17" class="node">
<title>16</title>
<path fill="none" stroke="#568ad8" stroke-width="2" d="M905.5,-252C905.5,-252 830.5,-252 830.5,-252 824.5,-252 818.5,-246 818.5,-240 818.5,-240 818.5,-228 818.5,-228 818.5,-222 824.5,-216 830.5,-216 830.5,-216 905.5,-216 905.5,-216 911.5,-216 917.5,-222 917.5,-228 917.5,-228 917.5,-240 917.5,-240 917.5,-246 911.5,-252 905.5,-252"/>
<text text-anchor="middle" x="868" y="-231.5" font-family="sans" font-size="10.00">get_summarylist</text>
</g>
<!-- 16&#45;&gt;15 -->
<g id="edge30" class="edge">
<title>16&#45;&gt;15</title>
<path fill="none" stroke="grey" stroke-width="2" d="M868.99,-215.7C869.43,-207.98 869.96,-198.71 870.45,-190.11"/>
<polygon fill="grey" stroke="grey" stroke-width="2" points="873.95,-190.29 871.02,-180.1 866.96,-189.89 873.95,-190.29"/>
</g>
<!-- 17&#45;&gt;16 -->
<g id="edge31" class="edge">
<title>17&#45;&gt;16</title>
<path fill="none" stroke="grey" stroke-width="2" d="M868,-287.7C868,-279.98 868,-270.71 868,-262.11"/>
<polygon fill="grey" stroke="grey" stroke-width="2" points="871.5,-262.1 868,-252.1 864.5,-262.1 871.5,-262.1"/>
</g>
<!-- 18 -->
<g id="node19" class="node">
<title>18</title>
<path fill="none" stroke="#d88d56" stroke-width="2" stroke-dasharray="5,2" d="M802,-412C802,-412 636,-412 636,-412 630,-412 624,-406 624,-400 624,-400 624,-372 624,-372 624,-366 630,-360 636,-360 636,-360 802,-360 802,-360 808,-360 814,-366 814,-372 814,-372 814,-400 814,-400 814,-406 808,-412 802,-412"/>
<text text-anchor="middle" x="719" y="-400" font-family="sans" font-size="10.00">get_bam</text>
<text text-anchor="middle" x="719" y="-389" font-family="sans" font-size="10.00">hap: 2</text>
<text text-anchor="middle" x="719" y="-378" font-family="sans" font-size="10.00">region: chr1&#45;119747586&#45;121609789</text>
<text text-anchor="middle" x="719" y="-367" font-family="sans" font-size="10.00">sample: GM19434</text>
</g>
<!-- 18&#45;&gt;17 -->
<g id="edge32" class="edge">
<title>18&#45;&gt;17</title>
<path fill="none" stroke="grey" stroke-width="2" d="M766.96,-359.89C786.03,-349.91 807.77,-338.53 826.18,-328.89"/>
<polygon fill="grey" stroke="grey" stroke-width="2" points="827.96,-331.91 835.2,-324.17 824.72,-325.71 827.96,-331.91"/>
</g>
<!-- 19 -->
<g id="node20" class="node">
<title>19</title>
<path fill="none" stroke="#56c1d8" stroke-width="2" d="M1014.5,-180C1014.5,-180 947.5,-180 947.5,-180 941.5,-180 935.5,-174 935.5,-168 935.5,-168 935.5,-156 935.5,-156 935.5,-150 941.5,-144 947.5,-144 947.5,-144 1014.5,-144 1014.5,-144 1020.5,-144 1026.5,-150 1026.5,-156 1026.5,-156 1026.5,-168 1026.5,-168 1026.5,-174 1020.5,-180 1014.5,-180"/>
<text text-anchor="middle" x="981" y="-159.5" font-family="sans" font-size="10.00">get_action_line</text>
</g>
<!-- 19&#45;&gt;0 -->
<g id="edge6" class="edge">
<title>19&#45;&gt;0</title>
<path fill="none" stroke="grey" stroke-width="2" d="M984.75,-143.72C987.92,-125.12 990.45,-95.09 980,-72 974.77,-60.44 965.65,-50.33 956.13,-42.13"/>
<polygon fill="grey" stroke="grey" stroke-width="2" points="958.1,-39.22 948.11,-35.7 953.72,-44.68 958.1,-39.22"/>
</g>
<!-- 19&#45;&gt;1 -->
<g id="edge14" class="edge">
<title>19&#45;&gt;1</title>
<path fill="none" stroke="grey" stroke-width="2" d="M966.17,-143.7C958.98,-135.3 950.2,-125.07 942.31,-115.86"/>
<polygon fill="grey" stroke="grey" stroke-width="2" points="944.83,-113.42 935.66,-108.1 939.51,-117.97 944.83,-113.42"/>
</g>
<!-- 20 -->
<g id="node21" class="node">
<title>20</title>
<path fill="none" stroke="#568ad8" stroke-width="2" d="M1022.5,-252C1022.5,-252 947.5,-252 947.5,-252 941.5,-252 935.5,-246 935.5,-240 935.5,-240 935.5,-228 935.5,-228 935.5,-222 941.5,-216 947.5,-216 947.5,-216 1022.5,-216 1022.5,-216 1028.5,-216 1034.5,-222 1034.5,-228 1034.5,-228 1034.5,-240 1034.5,-240 1034.5,-246 1028.5,-252 1022.5,-252"/>
<text text-anchor="middle" x="985" y="-231.5" font-family="sans" font-size="10.00">get_summarylist</text>
</g>
<!-- 20&#45;&gt;19 -->
<g id="edge34" class="edge">
<title>20&#45;&gt;19</title>
<path fill="none" stroke="grey" stroke-width="2" d="M984.01,-215.7C983.57,-207.98 983.04,-198.71 982.55,-190.11"/>
<polygon fill="grey" stroke="grey" stroke-width="2" points="986.04,-189.89 981.98,-180.1 979.05,-190.29 986.04,-189.89"/>
</g>
<!-- 21&#45;&gt;20 -->
<g id="edge35" class="edge">
<title>21&#45;&gt;20</title>
<path fill="none" stroke="grey" stroke-width="2" d="M985,-287.7C985,-279.98 985,-270.71 985,-262.11"/>
<polygon fill="grey" stroke="grey" stroke-width="2" points="988.5,-262.1 985,-252.1 981.5,-262.1 988.5,-262.1"/>
</g>
<!-- 22 -->
<g id="node23" class="node">
<title>22</title>
<path fill="none" stroke="#d88d56" stroke-width="2" stroke-dasharray="5,2" d="M1218,-412C1218,-412 1052,-412 1052,-412 1046,-412 1040,-406 1040,-400 1040,-400 1040,-372 1040,-372 1040,-366 1046,-360 1052,-360 1052,-360 1218,-360 1218,-360 1224,-360 1230,-366 1230,-372 1230,-372 1230,-400 1230,-400 1230,-406 1224,-412 1218,-412"/>
<text text-anchor="middle" x="1135" y="-400" font-family="sans" font-size="10.00">get_bam</text>
<text text-anchor="middle" x="1135" y="-389" font-family="sans" font-size="10.00">hap: 1</text>
<text text-anchor="middle" x="1135" y="-378" font-family="sans" font-size="10.00">region: chr1&#45;119747586&#45;121609789</text>
<text text-anchor="middle" x="1135" y="-367" font-family="sans" font-size="10.00">sample: HG00171</text>
</g>
<!-- 22&#45;&gt;21 -->
<g id="edge36" class="edge">
<title>22&#45;&gt;21</title>
<path fill="none" stroke="grey" stroke-width="2" d="M1086.71,-359.89C1067.52,-349.91 1045.64,-338.53 1027.1,-328.89"/>
<polygon fill="grey" stroke="grey" stroke-width="2" points="1028.51,-325.68 1018.02,-324.17 1025.28,-331.89 1028.51,-325.68"/>
</g>
<!-- 23 -->
<g id="node24" class="node">
<title>23</title>
<path fill="none" stroke="#56c1d8" stroke-width="2" d="M1123.5,-180C1123.5,-180 1056.5,-180 1056.5,-180 1050.5,-180 1044.5,-174 1044.5,-168 1044.5,-168 1044.5,-156 1044.5,-156 1044.5,-150 1050.5,-144 1056.5,-144 1056.5,-144 1123.5,-144 1123.5,-144 1129.5,-144 1135.5,-150 1135.5,-156 1135.5,-156 1135.5,-168 1135.5,-168 1135.5,-174 1129.5,-180 1123.5,-180"/>
<text text-anchor="middle" x="1090" y="-159.5" font-family="sans" font-size="10.00">get_action_line</text>
</g>
<!-- 23&#45;&gt;0 -->
<g id="edge7" class="edge">
<title>23&#45;&gt;0</title>
<path fill="none" stroke="grey" stroke-width="2" d="M1073.59,-143.78C1055.55,-125.22 1025.36,-95.22 997,-72 984.14,-61.47 969.27,-50.8 956.12,-41.82"/>
<polygon fill="grey" stroke="grey" stroke-width="2" points="958.01,-38.87 947.76,-36.19 954.09,-44.68 958.01,-38.87"/>
</g>
<!-- 23&#45;&gt;1 -->
<g id="edge15" class="edge">
<title>23&#45;&gt;1</title>
<path fill="none" stroke="grey" stroke-width="2" d="M1048.66,-143.88C1025.45,-134.26 996.31,-122.19 971.73,-112.01"/>
<polygon fill="grey" stroke="grey" stroke-width="2" points="972.79,-108.66 962.21,-108.07 970.11,-115.13 972.79,-108.66"/>
</g>
<!-- 24 -->
<g id="node25" class="node">
<title>24</title>
<path fill="none" stroke="#568ad8" stroke-width="2" d="M1139.5,-252C1139.5,-252 1064.5,-252 1064.5,-252 1058.5,-252 1052.5,-246 1052.5,-240 1052.5,-240 1052.5,-228 1052.5,-228 1052.5,-222 1058.5,-216 1064.5,-216 1064.5,-216 1139.5,-216 1139.5,-216 1145.5,-216 1151.5,-222 1151.5,-228 1151.5,-228 1151.5,-240 1151.5,-240 1151.5,-246 1145.5,-252 1139.5,-252"/>
<text text-anchor="middle" x="1102" y="-231.5" font-family="sans" font-size="10.00">get_summarylist</text>
</g>
<!-- 24&#45;&gt;23 -->
<g id="edge38" class="edge">
<title>24&#45;&gt;23</title>
<path fill="none" stroke="grey" stroke-width="2" d="M1099.03,-215.7C1097.71,-207.98 1096.12,-198.71 1094.65,-190.11"/>
<polygon fill="grey" stroke="grey" stroke-width="2" points="1098.07,-189.37 1092.93,-180.1 1091.17,-190.55 1098.07,-189.37"/>
</g>
<!-- 25&#45;&gt;24 -->
<g id="edge39" class="edge">
<title>25&#45;&gt;24</title>
<path fill="none" stroke="grey" stroke-width="2" d="M1102,-287.7C1102,-279.98 1102,-270.71 1102,-262.11"/>
<polygon fill="grey" stroke="grey" stroke-width="2" points="1105.5,-262.1 1102,-252.1 1098.5,-262.1 1105.5,-262.1"/>
</g>
<!-- 26 -->
<g id="node27" class="node">
<title>26</title>
<path fill="none" stroke="#d88d56" stroke-width="2" stroke-dasharray="5,2" d="M1426,-412C1426,-412 1260,-412 1260,-412 1254,-412 1248,-406 1248,-400 1248,-400 1248,-372 1248,-372 1248,-366 1254,-360 1260,-360 1260,-360 1426,-360 1426,-360 1432,-360 1438,-366 1438,-372 1438,-372 1438,-400 1438,-400 1438,-406 1432,-412 1426,-412"/>
<text text-anchor="middle" x="1343" y="-400" font-family="sans" font-size="10.00">get_bam</text>
<text text-anchor="middle" x="1343" y="-389" font-family="sans" font-size="10.00">hap: 2</text>
<text text-anchor="middle" x="1343" y="-378" font-family="sans" font-size="10.00">region: chr1&#45;119747586&#45;121609789</text>
<text text-anchor="middle" x="1343" y="-367" font-family="sans" font-size="10.00">sample: HG00171</text>
</g>
<!-- 26&#45;&gt;25 -->
<g id="edge40" class="edge">
<title>26&#45;&gt;25</title>
<path fill="none" stroke="grey" stroke-width="2" d="M1265.75,-360C1227.95,-347.76 1183.59,-333.41 1150.59,-322.73"/>
<polygon fill="grey" stroke="grey" stroke-width="2" points="1151.32,-319.28 1140.73,-319.53 1149.16,-325.94 1151.32,-319.28"/>
</g>
<!-- 27 -->
<g id="node28" class="node">
<title>27</title>
<path fill="none" stroke="#56c1d8" stroke-width="2" d="M1232.5,-180C1232.5,-180 1165.5,-180 1165.5,-180 1159.5,-180 1153.5,-174 1153.5,-168 1153.5,-168 1153.5,-156 1153.5,-156 1153.5,-150 1159.5,-144 1165.5,-144 1165.5,-144 1232.5,-144 1232.5,-144 1238.5,-144 1244.5,-150 1244.5,-156 1244.5,-156 1244.5,-168 1244.5,-168 1244.5,-174 1238.5,-180 1232.5,-180"/>
<text text-anchor="middle" x="1199" y="-159.5" font-family="sans" font-size="10.00">get_action_line</text>
</g>
<!-- 27&#45;&gt;0 -->
<g id="edge8" class="edge">
<title>27&#45;&gt;0</title>
<path fill="none" stroke="grey" stroke-width="2" d="M1167.39,-143.96C1133.55,-125.82 1078.22,-96.41 1030,-72 1006.07,-59.88 978.94,-46.69 957.74,-36.5"/>
<polygon fill="grey" stroke="grey" stroke-width="2" points="958.98,-33.21 948.45,-32.04 955.95,-39.52 958.98,-33.21"/>
</g>
<!-- 27&#45;&gt;1 -->
<g id="edge16" class="edge">
<title>27&#45;&gt;1</title>
<path fill="none" stroke="grey" stroke-width="2" d="M1153.4,-146.39C1150.57,-145.56 1147.75,-144.76 1145,-144 1089.66,-128.76 1025.9,-113.94 980.59,-103.86"/>
<polygon fill="grey" stroke="grey" stroke-width="2" points="981.16,-100.4 970.64,-101.66 979.65,-107.24 981.16,-100.4"/>
</g>
<!-- 28 -->
<g id="node29" class="node">
<title>28</title>
<path fill="none" stroke="#568ad8" stroke-width="2" d="M1256.5,-252C1256.5,-252 1181.5,-252 1181.5,-252 1175.5,-252 1169.5,-246 1169.5,-240 1169.5,-240 1169.5,-228 1169.5,-228 1169.5,-222 1175.5,-216 1181.5,-216 1181.5,-216 1256.5,-216 1256.5,-216 1262.5,-216 1268.5,-222 1268.5,-228 1268.5,-228 1268.5,-240 1268.5,-240 1268.5,-246 1262.5,-252 1256.5,-252"/>
<text text-anchor="middle" x="1219" y="-231.5" font-family="sans" font-size="10.00">get_summarylist</text>
</g>
<!-- 28&#45;&gt;27 -->
<g id="edge42" class="edge">
<title>28&#45;&gt;27</title>
<path fill="none" stroke="grey" stroke-width="2" d="M1214.06,-215.7C1211.83,-207.9 1209.15,-198.51 1206.67,-189.83"/>
<polygon fill="grey" stroke="grey" stroke-width="2" points="1210,-188.76 1203.89,-180.1 1203.27,-190.68 1210,-188.76"/>
</g>
<!-- 29&#45;&gt;28 -->
<g id="edge43" class="edge">
<title>29&#45;&gt;28</title>
<path fill="none" stroke="grey" stroke-width="2" d="M1219,-287.7C1219,-279.98 1219,-270.71 1219,-262.11"/>
<polygon fill="grey" stroke="grey" stroke-width="2" points="1222.5,-262.1 1219,-252.1 1215.5,-262.1 1222.5,-262.1"/>
</g>
<!-- 30 -->
<g id="node31" class="node">
<title>30</title>
<path fill="none" stroke="#d88d56" stroke-width="2" stroke-dasharray="5,2" d="M1634,-412C1634,-412 1468,-412 1468,-412 1462,-412 1456,-406 1456,-400 1456,-400 1456,-372 1456,-372 1456,-366 1462,-360 1468,-360 1468,-360 1634,-360 1634,-360 1640,-360 1646,-366 1646,-372 1646,-372 1646,-400 1646,-400 1646,-406 1640,-412 1634,-412"/>
<text text-anchor="middle" x="1551" y="-400" font-family="sans" font-size="10.00">get_bam</text>
<text text-anchor="middle" x="1551" y="-389" font-family="sans" font-size="10.00">hap: 1</text>
<text text-anchor="middle" x="1551" y="-378" font-family="sans" font-size="10.00">region: chr1&#45;119747586&#45;121609789</text>
<text text-anchor="middle" x="1551" y="-367" font-family="sans" font-size="10.00">sample: HG00512</text>
</g>
<!-- 30&#45;&gt;29 -->
<g id="edge44" class="edge">
<title>30&#45;&gt;29</title>
<path fill="none" stroke="grey" stroke-width="2" d="M1455.8,-362.07C1452.83,-361.37 1449.89,-360.68 1447,-360 1376.87,-343.58 1359.11,-340.5 1289,-324 1282.21,-322.4 1275.06,-320.69 1268.02,-319"/>
<polygon fill="grey" stroke="grey" stroke-width="2" points="1268.4,-315.49 1257.85,-316.54 1266.75,-322.29 1268.4,-315.49"/>
</g>
<!-- 31 -->
<g id="node32" class="node">
<title>31</title>
<path fill="none" stroke="#56c1d8" stroke-width="2" d="M1341.5,-180C1341.5,-180 1274.5,-180 1274.5,-180 1268.5,-180 1262.5,-174 1262.5,-168 1262.5,-168 1262.5,-156 1262.5,-156 1262.5,-150 1268.5,-144 1274.5,-144 1274.5,-144 1341.5,-144 1341.5,-144 1347.5,-144 1353.5,-150 1353.5,-156 1353.5,-156 1353.5,-168 1353.5,-168 1353.5,-174 1347.5,-180 1341.5,-180"/>
<text text-anchor="middle" x="1308" y="-159.5" font-family="sans" font-size="10.00">get_action_line</text>
</g>
<!-- 31&#45;&gt;0 -->
<g id="edge9" class="edge">
<title>31&#45;&gt;0</title>
<path fill="none" stroke="grey" stroke-width="2" d="M1264.99,-143.96C1218.55,-125.68 1142.31,-96.05 1076,-72 1035.83,-57.43 989.43,-41.71 957.94,-31.2"/>
<polygon fill="grey" stroke="grey" stroke-width="2" points="958.86,-27.82 948.27,-27.99 956.65,-34.46 958.86,-27.82"/>
</g>
<!-- 31&#45;&gt;1 -->
<g id="edge17" class="edge">
<title>31&#45;&gt;1</title>
<path fill="none" stroke="grey" stroke-width="2" d="M1262.47,-146.15C1259.61,-145.38 1256.77,-144.65 1254,-144 1159.43,-121.71 1047.5,-106.05 980.49,-97.78"/>
<polygon fill="grey" stroke="grey" stroke-width="2" points="980.88,-94.31 970.53,-96.57 980.03,-101.26 980.88,-94.31"/>
</g>
<!-- 32 -->
<g id="node33" class="node">
<title>32</title>
<path fill="none" stroke="#568ad8" stroke-width="2" d="M1373.5,-252C1373.5,-252 1298.5,-252 1298.5,-252 1292.5,-252 1286.5,-246 1286.5,-240 1286.5,-240 1286.5,-228 1286.5,-228 1286.5,-222 1292.5,-216 1298.5,-216 1298.5,-216 1373.5,-216 1373.5,-216 1379.5,-216 1385.5,-222 1385.5,-228 1385.5,-228 1385.5,-240 1385.5,-240 1385.5,-246 1379.5,-252 1373.5,-252"/>
<text text-anchor="middle" x="1336" y="-231.5" font-family="sans" font-size="10.00">get_summarylist</text>
</g>
<!-- 32&#45;&gt;31 -->
<g id="edge46" class="edge">
<title>32&#45;&gt;31</title>
<path fill="none" stroke="grey" stroke-width="2" d="M1329.08,-215.7C1325.93,-207.81 1322.12,-198.3 1318.62,-189.55"/>
<polygon fill="grey" stroke="grey" stroke-width="2" points="1321.81,-188.09 1314.84,-180.1 1315.31,-190.69 1321.81,-188.09"/>
</g>
<!-- 33&#45;&gt;32 -->
<g id="edge47" class="edge">
<title>33&#45;&gt;32</title>
<path fill="none" stroke="grey" stroke-width="2" d="M1336,-287.7C1336,-279.98 1336,-270.71 1336,-262.11"/>
<polygon fill="grey" stroke="grey" stroke-width="2" points="1339.5,-262.1 1336,-252.1 1332.5,-262.1 1339.5,-262.1"/>
</g>
<!-- 34 -->
<g id="node35" class="node">
<title>34</title>
<path fill="none" stroke="#d88d56" stroke-width="2" stroke-dasharray="5,2" d="M1842,-412C1842,-412 1676,-412 1676,-412 1670,-412 1664,-406 1664,-400 1664,-400 1664,-372 1664,-372 1664,-366 1670,-360 1676,-360 1676,-360 1842,-360 1842,-360 1848,-360 1854,-366 1854,-372 1854,-372 1854,-400 1854,-400 1854,-406 1848,-412 1842,-412"/>
<text text-anchor="middle" x="1759" y="-400" font-family="sans" font-size="10.00">get_bam</text>
<text text-anchor="middle" x="1759" y="-389" font-family="sans" font-size="10.00">hap: 2</text>
<text text-anchor="middle" x="1759" y="-378" font-family="sans" font-size="10.00">region: chr1&#45;119747586&#45;121609789</text>
<text text-anchor="middle" x="1759" y="-367" font-family="sans" font-size="10.00">sample: HG00512</text>
</g>
<!-- 34&#45;&gt;33 -->
<g id="edge48" class="edge">
<title>34&#45;&gt;33</title>
<path fill="none" stroke="grey" stroke-width="2" d="M1663.85,-361.84C1660.87,-361.21 1657.91,-360.59 1655,-360 1559.89,-340.69 1447.76,-323.29 1384.97,-314.03"/>
<polygon fill="grey" stroke="grey" stroke-width="2" points="1385.36,-310.55 1374.96,-312.56 1384.34,-317.47 1385.36,-310.55"/>
</g>
</g>
</svg>
