<?xml version="1.0" encoding="UTF-8" standalone="no"?>
<!DOCTYPE svg PUBLIC "-//W3C//DTD SVG 1.1//EN"
 "http://www.w3.org/Graphics/SVG/1.1/DTD/svg11.dtd">
<!-- Generated by graphviz version 2.50.0 (0)
 -->
<!-- Title: snakemake_dag Pages: 1 -->
<svg width="1030pt" height="420pt"
 viewBox="0.00 0.00 1030.00 420.00" xmlns="http://www.w3.org/2000/svg" xmlns:xlink="http://www.w3.org/1999/xlink">
<g id="graph0" class="graph" transform="scale(1 1) rotate(0) translate(4 416)">
<title>snakemake_dag</title>
<polygon fill="white" stroke="transparent" points="-4,4 -4,-416 1026,-416 1026,4 -4,4"/>
<!-- 0 -->
<g id="node1" class="node">
<title>0</title>
<path fill="none" stroke="#59d856" stroke-width="2" d="M522,-36C522,-36 492,-36 492,-36 486,-36 480,-30 480,-24 480,-24 480,-12 480,-12 480,-6 486,0 492,0 492,0 522,0 522,0 528,0 534,-6 534,-12 534,-12 534,-24 534,-24 534,-30 528,-36 522,-36"/>
<text text-anchor="middle" x="507" y="-15.5" font-family="sans" font-size="10.00">all</text>
</g>
<!-- 1 -->
<g id="node2" class="node">
<title>1</title>
<path fill="none" stroke="#56c1d8" stroke-width="2" d="M544.5,-108C544.5,-108 469.5,-108 469.5,-108 463.5,-108 457.5,-102 457.5,-96 457.5,-96 457.5,-84 457.5,-84 457.5,-78 463.5,-72 469.5,-72 469.5,-72 544.5,-72 544.5,-72 550.5,-72 556.5,-78 556.5,-84 556.5,-84 556.5,-96 556.5,-96 556.5,-102 550.5,-108 544.5,-108"/>
<text text-anchor="middle" x="507" y="-87.5" font-family="sans" font-size="10.00">combine_actions</text>
</g>
<!-- 1&#45;&gt;0 -->
<g id="edge1" class="edge">
<title>1&#45;&gt;0</title>
<path fill="none" stroke="grey" stroke-width="2" d="M507,-71.7C507,-63.98 507,-54.71 507,-46.11"/>
<polygon fill="grey" stroke="grey" stroke-width="2" points="510.5,-46.1 507,-36.1 503.5,-46.1 510.5,-46.1"/>
</g>
<!-- 2 -->
<g id="node3" class="node">
<title>2</title>
<path fill="none" stroke="#56d8c1" stroke-width="2" d="M378.5,-180C378.5,-180 311.5,-180 311.5,-180 305.5,-180 299.5,-174 299.5,-168 299.5,-168 299.5,-156 299.5,-156 299.5,-150 305.5,-144 311.5,-144 311.5,-144 378.5,-144 378.5,-144 384.5,-144 390.5,-150 390.5,-156 390.5,-156 390.5,-168 390.5,-168 390.5,-174 384.5,-180 378.5,-180"/>
<text text-anchor="middle" x="345" y="-159.5" font-family="sans" font-size="10.00">get_action_line</text>
</g>
<!-- 2&#45;&gt;0 -->
<g id="edge2" class="edge">
<title>2&#45;&gt;0</title>
<path fill="none" stroke="grey" stroke-width="2" d="M361.96,-143.69C380.21,-125.32 410.36,-95.72 438,-72 449.81,-61.87 463.28,-51.31 475.17,-42.31"/>
<polygon fill="grey" stroke="grey" stroke-width="2" points="477.61,-44.86 483.5,-36.06 473.41,-39.26 477.61,-44.86"/>
</g>
<!-- 2&#45;&gt;1 -->
<g id="edge6" class="edge">
<title>2&#45;&gt;1</title>
<path fill="none" stroke="grey" stroke-width="2" d="M384.63,-143.88C406.78,-134.31 434.56,-122.3 458.06,-112.15"/>
<polygon fill="grey" stroke="grey" stroke-width="2" points="459.71,-115.25 467.5,-108.07 456.93,-108.82 459.71,-115.25"/>
</g>
<!-- 3 -->
<g id="node4" class="node">
<title>3</title>
<path fill="none" stroke="#88d856" stroke-width="2" d="M372.5,-252C372.5,-252 297.5,-252 297.5,-252 291.5,-252 285.5,-246 285.5,-240 285.5,-240 285.5,-228 285.5,-228 285.5,-222 291.5,-216 297.5,-216 297.5,-216 372.5,-216 372.5,-216 378.5,-216 384.5,-222 384.5,-228 384.5,-228 384.5,-240 384.5,-240 384.5,-246 378.5,-252 372.5,-252"/>
<text text-anchor="middle" x="335" y="-231.5" font-family="sans" font-size="10.00">get_summarylist</text>
</g>
<!-- 3&#45;&gt;2 -->
<g id="edge10" class="edge">
<title>3&#45;&gt;2</title>
<path fill="none" stroke="grey" stroke-width="2" d="M337.47,-215.7C338.57,-207.98 339.9,-198.71 341.13,-190.11"/>
<polygon fill="grey" stroke="grey" stroke-width="2" points="344.61,-190.5 342.56,-180.1 337.68,-189.51 344.61,-190.5"/>
</g>
<!-- 4 -->
<g id="node5" class="node">
<title>4</title>
<path fill="none" stroke="#d88d56" stroke-width="2" stroke-dasharray="5,2" d="M361.5,-324C361.5,-324 308.5,-324 308.5,-324 302.5,-324 296.5,-318 296.5,-312 296.5,-312 296.5,-300 296.5,-300 296.5,-294 302.5,-288 308.5,-288 308.5,-288 361.5,-288 361.5,-288 367.5,-288 373.5,-294 373.5,-300 373.5,-300 373.5,-312 373.5,-312 373.5,-318 367.5,-324 361.5,-324"/>
<text text-anchor="middle" x="335" y="-303.5" font-family="sans" font-size="10.00">get_haptags</text>
</g>
<!-- 4&#45;&gt;3 -->
<g id="edge11" class="edge">
<title>4&#45;&gt;3</title>
<path fill="none" stroke="grey" stroke-width="2" d="M335,-287.7C335,-279.98 335,-270.71 335,-262.11"/>
<polygon fill="grey" stroke="grey" stroke-width="2" points="338.5,-262.1 335,-252.1 331.5,-262.1 338.5,-262.1"/>
</g>
<!-- 5 -->
<g id="node6" class="node">
<title>5</title>
<path fill="none" stroke="#568ad8" stroke-width="2" stroke-dasharray="5,2" d="M178,-412C178,-412 12,-412 12,-412 6,-412 0,-406 0,-400 0,-400 0,-372 0,-372 0,-366 6,-360 12,-360 12,-360 178,-360 178,-360 184,-360 190,-366 190,-372 190,-372 190,-400 190,-400 190,-406 184,-412 178,-412"/>
<text text-anchor="middle" x="95" y="-400" font-family="sans" font-size="10.00">get_bam</text>
<text text-anchor="middle" x="95" y="-389" font-family="sans" font-size="10.00">hap: 1</text>
<text text-anchor="middle" x="95" y="-378" font-family="sans" font-size="10.00">region: chr1&#45;119747586&#45;121609789</text>
<text text-anchor="middle" x="95" y="-367" font-family="sans" font-size="10.00">sample: GM19129</text>
</g>
<!-- 5&#45;&gt;4 -->
<g id="edge12" class="edge">
<title>5&#45;&gt;4</title>
<path fill="none" stroke="grey" stroke-width="2" d="M171.93,-360C209.58,-347.76 253.75,-333.41 286.62,-322.73"/>
<polygon fill="grey" stroke="grey" stroke-width="2" points="288,-325.95 296.43,-319.53 285.84,-319.3 288,-325.95"/>
</g>
<!-- 6 -->
<g id="node7" class="node">
<title>6</title>
<path fill="none" stroke="#56d88a" stroke-width="2" stroke-dasharray="5,2" d="M594,-404C594,-404 428,-404 428,-404 422,-404 416,-398 416,-392 416,-392 416,-380 416,-380 416,-374 422,-368 428,-368 428,-368 594,-368 594,-368 600,-368 606,-374 606,-380 606,-380 606,-392 606,-392 606,-398 600,-404 594,-404"/>
<text text-anchor="middle" x="511" y="-389" font-family="sans" font-size="10.00">subset_vcf_to_region</text>
<text text-anchor="middle" x="511" y="-378" font-family="sans" font-size="10.00">region: chr1&#45;119747586&#45;121609789</text>
</g>
<!-- 6&#45;&gt;4 -->
<g id="edge13" class="edge">
<title>6&#45;&gt;4</title>
<path fill="none" stroke="grey" stroke-width="2" d="M472.38,-367.88C446.01,-356.2 410.91,-340.64 382.78,-328.18"/>
<polygon fill="grey" stroke="grey" stroke-width="2" points="384.09,-324.93 373.53,-324.08 381.26,-331.33 384.09,-324.93"/>
</g>
<!-- 9 -->
<g id="node10" class="node">
<title>9</title>
<path fill="none" stroke="#d88d56" stroke-width="2" stroke-dasharray="5,2" d="M478.5,-324C478.5,-324 425.5,-324 425.5,-324 419.5,-324 413.5,-318 413.5,-312 413.5,-312 413.5,-300 413.5,-300 413.5,-294 419.5,-288 425.5,-288 425.5,-288 478.5,-288 478.5,-288 484.5,-288 490.5,-294 490.5,-300 490.5,-300 490.5,-312 490.5,-312 490.5,-318 484.5,-324 478.5,-324"/>
<text text-anchor="middle" x="452" y="-303.5" font-family="sans" font-size="10.00">get_haptags</text>
</g>
<!-- 6&#45;&gt;9 -->
<g id="edge17" class="edge">
<title>6&#45;&gt;9</title>
<path fill="none" stroke="grey" stroke-width="2" d="M497.91,-367.69C490.04,-357.29 479.89,-343.87 471.13,-332.29"/>
<polygon fill="grey" stroke="grey" stroke-width="2" points="473.88,-330.13 465.06,-324.26 468.3,-334.35 473.88,-330.13"/>
</g>
<!-- 13 -->
<g id="node14" class="node">
<title>13</title>
<path fill="none" stroke="#d88d56" stroke-width="2" stroke-dasharray="5,2" d="M595.5,-324C595.5,-324 542.5,-324 542.5,-324 536.5,-324 530.5,-318 530.5,-312 530.5,-312 530.5,-300 530.5,-300 530.5,-294 536.5,-288 542.5,-288 542.5,-288 595.5,-288 595.5,-288 601.5,-288 607.5,-294 607.5,-300 607.5,-300 607.5,-312 607.5,-312 607.5,-318 601.5,-324 595.5,-324"/>
<text text-anchor="middle" x="569" y="-303.5" font-family="sans" font-size="10.00">get_haptags</text>
</g>
<!-- 6&#45;&gt;13 -->
<g id="edge21" class="edge">
<title>6&#45;&gt;13</title>
<path fill="none" stroke="grey" stroke-width="2" d="M523.87,-367.69C531.61,-357.29 541.58,-343.87 550.19,-332.29"/>
<polygon fill="grey" stroke="grey" stroke-width="2" points="553.01,-334.38 556.16,-324.26 547.39,-330.2 553.01,-334.38"/>
</g>
<!-- 17 -->
<g id="node18" class="node">
<title>17</title>
<path fill="none" stroke="#d88d56" stroke-width="2" stroke-dasharray="5,2" d="M712.5,-324C712.5,-324 659.5,-324 659.5,-324 653.5,-324 647.5,-318 647.5,-312 647.5,-312 647.5,-300 647.5,-300 647.5,-294 653.5,-288 659.5,-288 659.5,-288 712.5,-288 712.5,-288 718.5,-288 724.5,-294 724.5,-300 724.5,-300 724.5,-312 724.5,-312 724.5,-318 718.5,-324 712.5,-324"/>
<text text-anchor="middle" x="686" y="-303.5" font-family="sans" font-size="10.00">get_haptags</text>
</g>
<!-- 6&#45;&gt;17 -->
<g id="edge25" class="edge">
<title>6&#45;&gt;17</title>
<path fill="none" stroke="grey" stroke-width="2" d="M549.4,-367.88C575.62,-356.2 610.53,-340.64 638.49,-328.18"/>
<polygon fill="grey" stroke="grey" stroke-width="2" points="639.98,-331.35 647.69,-324.08 637.13,-324.95 639.98,-331.35"/>
</g>
<!-- 7 -->
<g id="node8" class="node">
<title>7</title>
<path fill="none" stroke="#56d8c1" stroke-width="2" d="M487.5,-180C487.5,-180 420.5,-180 420.5,-180 414.5,-180 408.5,-174 408.5,-168 408.5,-168 408.5,-156 408.5,-156 408.5,-150 414.5,-144 420.5,-144 420.5,-144 487.5,-144 487.5,-144 493.5,-144 499.5,-150 499.5,-156 499.5,-156 499.5,-168 499.5,-168 499.5,-174 493.5,-180 487.5,-180"/>
<text text-anchor="middle" x="454" y="-159.5" font-family="sans" font-size="10.00">get_action_line</text>
</g>
<!-- 7&#45;&gt;0 -->
<g id="edge3" class="edge">
<title>7&#45;&gt;0</title>
<path fill="none" stroke="grey" stroke-width="2" d="M448.56,-143.78C443.69,-125.22 438.76,-95.22 449,-72 454.03,-60.59 462.86,-50.57 472.14,-42.41"/>
<polygon fill="grey" stroke="grey" stroke-width="2" points="474.45,-45.04 479.96,-35.99 470.01,-39.62 474.45,-45.04"/>
</g>
<!-- 7&#45;&gt;1 -->
<g id="edge7" class="edge">
<title>7&#45;&gt;1</title>
<path fill="none" stroke="grey" stroke-width="2" d="M467.1,-143.7C473.39,-135.39 481.05,-125.28 487.96,-116.14"/>
<polygon fill="grey" stroke="grey" stroke-width="2" points="490.8,-118.19 494.05,-108.1 485.22,-113.96 490.8,-118.19"/>
</g>
<!-- 8 -->
<g id="node9" class="node">
<title>8</title>
<path fill="none" stroke="#88d856" stroke-width="2" d="M489.5,-252C489.5,-252 414.5,-252 414.5,-252 408.5,-252 402.5,-246 402.5,-240 402.5,-240 402.5,-228 402.5,-228 402.5,-222 408.5,-216 414.5,-216 414.5,-216 489.5,-216 489.5,-216 495.5,-216 501.5,-222 501.5,-228 501.5,-228 501.5,-240 501.5,-240 501.5,-246 495.5,-252 489.5,-252"/>
<text text-anchor="middle" x="452" y="-231.5" font-family="sans" font-size="10.00">get_summarylist</text>
</g>
<!-- 8&#45;&gt;7 -->
<g id="edge14" class="edge">
<title>8&#45;&gt;7</title>
<path fill="none" stroke="grey" stroke-width="2" d="M452.49,-215.7C452.71,-207.98 452.98,-198.71 453.23,-190.11"/>
<polygon fill="grey" stroke="grey" stroke-width="2" points="456.72,-190.2 453.51,-180.1 449.73,-190 456.72,-190.2"/>
</g>
<!-- 9&#45;&gt;8 -->
<g id="edge15" class="edge">
<title>9&#45;&gt;8</title>
<path fill="none" stroke="grey" stroke-width="2" d="M452,-287.7C452,-279.98 452,-270.71 452,-262.11"/>
<polygon fill="grey" stroke="grey" stroke-width="2" points="455.5,-262.1 452,-252.1 448.5,-262.1 455.5,-262.1"/>
</g>
<!-- 10 -->
<g id="node11" class="node">
<title>10</title>
<path fill="none" stroke="#568ad8" stroke-width="2" stroke-dasharray="5,2" d="M386,-412C386,-412 220,-412 220,-412 214,-412 208,-406 208,-400 208,-400 208,-372 208,-372 208,-366 214,-360 220,-360 220,-360 386,-360 386,-360 392,-360 398,-366 398,-372 398,-372 398,-400 398,-400 398,-406 392,-412 386,-412"/>
<text text-anchor="middle" x="303" y="-400" font-family="sans" font-size="10.00">get_bam</text>
<text text-anchor="middle" x="303" y="-389" font-family="sans" font-size="10.00">hap: 2</text>
<text text-anchor="middle" x="303" y="-378" font-family="sans" font-size="10.00">region: chr1&#45;119747586&#45;121609789</text>
<text text-anchor="middle" x="303" y="-367" font-family="sans" font-size="10.00">sample: GM19129</text>
</g>
<!-- 10&#45;&gt;9 -->
<g id="edge16" class="edge">
<title>10&#45;&gt;9</title>
<path fill="none" stroke="grey" stroke-width="2" d="M350.96,-359.89C370.03,-349.91 391.77,-338.53 410.18,-328.89"/>
<polygon fill="grey" stroke="grey" stroke-width="2" points="411.96,-331.91 419.2,-324.17 408.72,-325.71 411.96,-331.91"/>
</g>
<!-- 11 -->
<g id="node12" class="node">
<title>11</title>
<path fill="none" stroke="#56d8c1" stroke-width="2" d="M600.5,-180C600.5,-180 533.5,-180 533.5,-180 527.5,-180 521.5,-174 521.5,-168 521.5,-168 521.5,-156 521.5,-156 521.5,-150 527.5,-144 533.5,-144 533.5,-144 600.5,-144 600.5,-144 606.5,-144 612.5,-150 612.5,-156 612.5,-156 612.5,-168 612.5,-168 612.5,-174 606.5,-180 600.5,-180"/>
<text text-anchor="middle" x="567" y="-159.5" font-family="sans" font-size="10.00">get_action_line</text>
</g>
<!-- 11&#45;&gt;0 -->
<g id="edge4" class="edge">
<title>11&#45;&gt;0</title>
<path fill="none" stroke="grey" stroke-width="2" d="M570.75,-143.72C573.92,-125.12 576.45,-95.09 566,-72 560.77,-60.44 551.65,-50.33 542.13,-42.13"/>
<polygon fill="grey" stroke="grey" stroke-width="2" points="544.1,-39.22 534.11,-35.7 539.72,-44.68 544.1,-39.22"/>
</g>
<!-- 11&#45;&gt;1 -->
<g id="edge8" class="edge">
<title>11&#45;&gt;1</title>
<path fill="none" stroke="grey" stroke-width="2" d="M552.17,-143.7C544.98,-135.3 536.2,-125.07 528.31,-115.86"/>
<polygon fill="grey" stroke="grey" stroke-width="2" points="530.83,-113.42 521.66,-108.1 525.51,-117.97 530.83,-113.42"/>
</g>
<!-- 12 -->
<g id="node13" class="node">
<title>12</title>
<path fill="none" stroke="#88d856" stroke-width="2" d="M606.5,-252C606.5,-252 531.5,-252 531.5,-252 525.5,-252 519.5,-246 519.5,-240 519.5,-240 519.5,-228 519.5,-228 519.5,-222 525.5,-216 531.5,-216 531.5,-216 606.5,-216 606.5,-216 612.5,-216 618.5,-222 618.5,-228 618.5,-228 618.5,-240 618.5,-240 618.5,-246 612.5,-252 606.5,-252"/>
<text text-anchor="middle" x="569" y="-231.5" font-family="sans" font-size="10.00">get_summarylist</text>
</g>
<!-- 12&#45;&gt;11 -->
<g id="edge18" class="edge">
<title>12&#45;&gt;11</title>
<path fill="none" stroke="grey" stroke-width="2" d="M568.51,-215.7C568.29,-207.98 568.02,-198.71 567.77,-190.11"/>
<polygon fill="grey" stroke="grey" stroke-width="2" points="571.27,-190 567.49,-180.1 564.28,-190.2 571.27,-190"/>
</g>
<!-- 13&#45;&gt;12 -->
<g id="edge19" class="edge">
<title>13&#45;&gt;12</title>
<path fill="none" stroke="grey" stroke-width="2" d="M569,-287.7C569,-279.98 569,-270.71 569,-262.11"/>
<polygon fill="grey" stroke="grey" stroke-width="2" points="572.5,-262.1 569,-252.1 565.5,-262.1 572.5,-262.1"/>
</g>
<!-- 14 -->
<g id="node15" class="node">
<title>14</title>
<path fill="none" stroke="#568ad8" stroke-width="2" stroke-dasharray="5,2" d="M802,-412C802,-412 636,-412 636,-412 630,-412 624,-406 624,-400 624,-400 624,-372 624,-372 624,-366 630,-360 636,-360 636,-360 802,-360 802,-360 808,-360 814,-366 814,-372 814,-372 814,-400 814,-400 814,-406 808,-412 802,-412"/>
<text text-anchor="middle" x="719" y="-400" font-family="sans" font-size="10.00">get_bam</text>
<text text-anchor="middle" x="719" y="-389" font-family="sans" font-size="10.00">hap: 1</text>
<text text-anchor="middle" x="719" y="-378" font-family="sans" font-size="10.00">region: chr1&#45;119747586&#45;121609789</text>
<text text-anchor="middle" x="719" y="-367" font-family="sans" font-size="10.00">sample: HG00512</text>
</g>
<!-- 14&#45;&gt;13 -->
<g id="edge20" class="edge">
<title>14&#45;&gt;13</title>
<path fill="none" stroke="grey" stroke-width="2" d="M670.71,-359.89C651.52,-349.91 629.64,-338.53 611.1,-328.89"/>
<polygon fill="grey" stroke="grey" stroke-width="2" points="612.51,-325.68 602.02,-324.17 609.28,-331.89 612.51,-325.68"/>
</g>
<!-- 15 -->
<g id="node16" class="node">
<title>15</title>
<path fill="none" stroke="#56d8c1" stroke-width="2" d="M709.5,-180C709.5,-180 642.5,-180 642.5,-180 636.5,-180 630.5,-174 630.5,-168 630.5,-168 630.5,-156 630.5,-156 630.5,-150 636.5,-144 642.5,-144 642.5,-144 709.5,-144 709.5,-144 715.5,-144 721.5,-150 721.5,-156 721.5,-156 721.5,-168 721.5,-168 721.5,-174 715.5,-180 709.5,-180"/>
<text text-anchor="middle" x="676" y="-159.5" font-family="sans" font-size="10.00">get_action_line</text>
</g>
<!-- 15&#45;&gt;0 -->
<g id="edge5" class="edge">
<title>15&#45;&gt;0</title>
<path fill="none" stroke="grey" stroke-width="2" d="M659.59,-143.78C641.55,-125.22 611.36,-95.22 583,-72 570.14,-61.47 555.27,-50.8 542.12,-41.82"/>
<polygon fill="grey" stroke="grey" stroke-width="2" points="544.01,-38.87 533.76,-36.19 540.09,-44.68 544.01,-38.87"/>
</g>
<!-- 15&#45;&gt;1 -->
<g id="edge9" class="edge">
<title>15&#45;&gt;1</title>
<path fill="none" stroke="grey" stroke-width="2" d="M634.66,-143.88C611.45,-134.26 582.31,-122.19 557.73,-112.01"/>
<polygon fill="grey" stroke="grey" stroke-width="2" points="558.79,-108.66 548.21,-108.07 556.11,-115.13 558.79,-108.66"/>
</g>
<!-- 16 -->
<g id="node17" class="node">
<title>16</title>
<path fill="none" stroke="#88d856" stroke-width="2" d="M723.5,-252C723.5,-252 648.5,-252 648.5,-252 642.5,-252 636.5,-246 636.5,-240 636.5,-240 636.5,-228 636.5,-228 636.5,-222 642.5,-216 648.5,-216 648.5,-216 723.5,-216 723.5,-216 729.5,-216 735.5,-222 735.5,-228 735.5,-228 735.5,-240 735.5,-240 735.5,-246 729.5,-252 723.5,-252"/>
<text text-anchor="middle" x="686" y="-231.5" font-family="sans" font-size="10.00">get_summarylist</text>
</g>
<!-- 16&#45;&gt;15 -->
<g id="edge22" class="edge">
<title>16&#45;&gt;15</title>
<path fill="none" stroke="grey" stroke-width="2" d="M683.53,-215.7C682.43,-207.98 681.1,-198.71 679.87,-190.11"/>
<polygon fill="grey" stroke="grey" stroke-width="2" points="683.32,-189.51 678.44,-180.1 676.39,-190.5 683.32,-189.51"/>
</g>
<!-- 17&#45;&gt;16 -->
<g id="edge23" class="edge">
<title>17&#45;&gt;16</title>
<path fill="none" stroke="grey" stroke-width="2" d="M686,-287.7C686,-279.98 686,-270.71 686,-262.11"/>
<polygon fill="grey" stroke="grey" stroke-width="2" points="689.5,-262.1 686,-252.1 682.5,-262.1 689.5,-262.1"/>
</g>
<!-- 18 -->
<g id="node19" class="node">
<title>18</title>
<path fill="none" stroke="#568ad8" stroke-width="2" stroke-dasharray="5,2" d="M1010,-412C1010,-412 844,-412 844,-412 838,-412 832,-406 832,-400 832,-400 832,-372 832,-372 832,-366 838,-360 844,-360 844,-360 1010,-360 1010,-360 1016,-360 1022,-366 1022,-372 1022,-372 1022,-400 1022,-400 1022,-406 1016,-412 1010,-412"/>
<text text-anchor="middle" x="927" y="-400" font-family="sans" font-size="10.00">get_bam</text>
<text text-anchor="middle" x="927" y="-389" font-family="sans" font-size="10.00">hap: 2</text>
<text text-anchor="middle" x="927" y="-378" font-family="sans" font-size="10.00">region: chr1&#45;119747586&#45;121609789</text>
<text text-anchor="middle" x="927" y="-367" font-family="sans" font-size="10.00">sample: HG00512</text>
</g>
<!-- 18&#45;&gt;17 -->
<g id="edge24" class="edge">
<title>18&#45;&gt;17</title>
<path fill="none" stroke="grey" stroke-width="2" d="M849.75,-360C811.95,-347.76 767.59,-333.41 734.59,-322.73"/>
<polygon fill="grey" stroke="grey" stroke-width="2" points="735.32,-319.28 724.73,-319.53 733.16,-325.94 735.32,-319.28"/>
</g>
</g>
</svg>
