<?xml version="1.0" encoding="UTF-8" standalone="no"?>
<!DOCTYPE svg PUBLIC "-//W3C//DTD SVG 1.1//EN"
 "http://www.w3.org/Graphics/SVG/1.1/DTD/svg11.dtd">
<!-- Generated by graphviz version 2.50.0 (0)
 -->
<!-- Title: snakemake_dag Pages: 1 -->
<svg width="1980pt" height="420pt"
 viewBox="0.00 0.00 1980.00 420.00" xmlns="http://www.w3.org/2000/svg" xmlns:xlink="http://www.w3.org/1999/xlink">
<g id="graph0" class="graph" transform="scale(1 1) rotate(0) translate(4 416)">
<title>snakemake_dag</title>
<polygon fill="white" stroke="transparent" points="-4,4 -4,-416 1976,-416 1976,4 -4,4"/>
<!-- 0 -->
<g id="node1" class="node">
<title>0</title>
<path fill="none" stroke="#bed856" stroke-width="2" d="M1025,-36C1025,-36 995,-36 995,-36 989,-36 983,-30 983,-24 983,-24 983,-12 983,-12 983,-6 989,0 995,0 995,0 1025,0 1025,0 1031,0 1037,-6 1037,-12 1037,-12 1037,-24 1037,-24 1037,-30 1031,-36 1025,-36"/>
<text text-anchor="middle" x="1010" y="-15.5" font-family="sans" font-size="10.00">all</text>
</g>
<!-- 1 -->
<g id="node2" class="node">
<title>1</title>
<path fill="none" stroke="#56d8c1" stroke-width="2" d="M1047.5,-108C1047.5,-108 972.5,-108 972.5,-108 966.5,-108 960.5,-102 960.5,-96 960.5,-96 960.5,-84 960.5,-84 960.5,-78 966.5,-72 972.5,-72 972.5,-72 1047.5,-72 1047.5,-72 1053.5,-72 1059.5,-78 1059.5,-84 1059.5,-84 1059.5,-96 1059.5,-96 1059.5,-102 1053.5,-108 1047.5,-108"/>
<text text-anchor="middle" x="1010" y="-87.5" font-family="sans" font-size="10.00">combine_actions</text>
</g>
<!-- 1&#45;&gt;0 -->
<g id="edge1" class="edge">
<title>1&#45;&gt;0</title>
<path fill="none" stroke="grey" stroke-width="2" d="M1010,-71.7C1010,-63.98 1010,-54.71 1010,-46.11"/>
<polygon fill="grey" stroke="grey" stroke-width="2" points="1013.5,-46.1 1010,-36.1 1006.5,-46.1 1013.5,-46.1"/>
</g>
<!-- 2 -->
<g id="node3" class="node">
<title>2</title>
<path fill="none" stroke="#88d856" stroke-width="2" d="M667.5,-180C667.5,-180 600.5,-180 600.5,-180 594.5,-180 588.5,-174 588.5,-168 588.5,-168 588.5,-156 588.5,-156 588.5,-150 594.5,-144 600.5,-144 600.5,-144 667.5,-144 667.5,-144 673.5,-144 679.5,-150 679.5,-156 679.5,-156 679.5,-168 679.5,-168 679.5,-174 673.5,-180 667.5,-180"/>
<text text-anchor="middle" x="634" y="-159.5" font-family="sans" font-size="10.00">get_action_line</text>
</g>
<!-- 2&#45;&gt;0 -->
<g id="edge2" class="edge">
<title>2&#45;&gt;0</title>
<path fill="none" stroke="grey" stroke-width="2" d="M667.92,-143.96C706.72,-124.88 772.43,-93.78 831,-72 879.31,-54.03 936.69,-37.93 973.21,-28.32"/>
<polygon fill="grey" stroke="grey" stroke-width="2" points="974.15,-31.69 982.94,-25.78 972.38,-24.92 974.15,-31.69"/>
</g>
<!-- 2&#45;&gt;1 -->
<g id="edge10" class="edge">
<title>2&#45;&gt;1</title>
<path fill="none" stroke="grey" stroke-width="2" d="M679.54,-146.16C682.39,-145.39 685.23,-144.66 688,-144 778.5,-122.42 885.39,-106.72 950.4,-98.23"/>
<polygon fill="grey" stroke="grey" stroke-width="2" points="951,-101.68 960.47,-96.93 950.1,-94.74 951,-101.68"/>
</g>
<!-- 3 -->
<g id="node4" class="node">
<title>3</title>
<path fill="none" stroke="#56c1d8" stroke-width="2" d="M493.5,-252C493.5,-252 418.5,-252 418.5,-252 412.5,-252 406.5,-246 406.5,-240 406.5,-240 406.5,-228 406.5,-228 406.5,-222 412.5,-216 418.5,-216 418.5,-216 493.5,-216 493.5,-216 499.5,-216 505.5,-222 505.5,-228 505.5,-228 505.5,-240 505.5,-240 505.5,-246 499.5,-252 493.5,-252"/>
<text text-anchor="middle" x="456" y="-231.5" font-family="sans" font-size="10.00">get_summarylist</text>
</g>
<!-- 3&#45;&gt;2 -->
<g id="edge18" class="edge">
<title>3&#45;&gt;2</title>
<path fill="none" stroke="grey" stroke-width="2" d="M499.54,-215.88C524.2,-206.18 555.22,-193.98 581.25,-183.74"/>
<polygon fill="grey" stroke="grey" stroke-width="2" points="582.57,-186.99 590.6,-180.07 580.01,-180.47 582.57,-186.99"/>
</g>
<!-- 4 -->
<g id="node5" class="node">
<title>4</title>
<path fill="none" stroke="#d88d56" stroke-width="2" stroke-dasharray="5,2" d="M452.5,-324C452.5,-324 399.5,-324 399.5,-324 393.5,-324 387.5,-318 387.5,-312 387.5,-312 387.5,-300 387.5,-300 387.5,-294 393.5,-288 399.5,-288 399.5,-288 452.5,-288 452.5,-288 458.5,-288 464.5,-294 464.5,-300 464.5,-300 464.5,-312 464.5,-312 464.5,-318 458.5,-324 452.5,-324"/>
<text text-anchor="middle" x="426" y="-303.5" font-family="sans" font-size="10.00">get_haptags</text>
</g>
<!-- 4&#45;&gt;3 -->
<g id="edge19" class="edge">
<title>4&#45;&gt;3</title>
<path fill="none" stroke="grey" stroke-width="2" d="M433.42,-287.7C436.79,-279.81 440.87,-270.3 444.62,-261.55"/>
<polygon fill="grey" stroke="grey" stroke-width="2" points="447.95,-262.67 448.67,-252.1 441.51,-259.92 447.95,-262.67"/>
</g>
<!-- 5 -->
<g id="node6" class="node">
<title>5</title>
<path fill="none" stroke="#d8bc56" stroke-width="2" stroke-dasharray="5,2" d="M178,-412C178,-412 12,-412 12,-412 6,-412 0,-406 0,-400 0,-400 0,-372 0,-372 0,-366 6,-360 12,-360 12,-360 178,-360 178,-360 184,-360 190,-366 190,-372 190,-372 190,-400 190,-400 190,-406 184,-412 178,-412"/>
<text text-anchor="middle" x="95" y="-400" font-family="sans" font-size="10.00">get_bam</text>
<text text-anchor="middle" x="95" y="-389" font-family="sans" font-size="10.00">hap: 1</text>
<text text-anchor="middle" x="95" y="-378" font-family="sans" font-size="10.00">region: chr1&#45;119747586&#45;121609789</text>
<text text-anchor="middle" x="95" y="-367" font-family="sans" font-size="10.00">sample: GM19129</text>
</g>
<!-- 5&#45;&gt;4 -->
<g id="edge20" class="edge">
<title>5&#45;&gt;4</title>
<path fill="none" stroke="grey" stroke-width="2" d="M190.21,-362.09C193.17,-361.38 196.11,-360.68 199,-360 260.51,-345.43 331.46,-328.91 377.44,-318.24"/>
<polygon fill="grey" stroke="grey" stroke-width="2" points="378.47,-321.59 387.42,-315.93 376.89,-314.78 378.47,-321.59"/>
</g>
<!-- 6 -->
<g id="node7" class="node">
<title>6</title>
<path fill="none" stroke="#56d88a" stroke-width="2" stroke-dasharray="5,2" d="M594,-404C594,-404 428,-404 428,-404 422,-404 416,-398 416,-392 416,-392 416,-380 416,-380 416,-374 422,-368 428,-368 428,-368 594,-368 594,-368 600,-368 606,-374 606,-380 606,-380 606,-392 606,-392 606,-398 600,-404 594,-404"/>
<text text-anchor="middle" x="511" y="-389" font-family="sans" font-size="10.00">subset_vcf_to_region</text>
<text text-anchor="middle" x="511" y="-378" font-family="sans" font-size="10.00">region: chr1&#45;119747586&#45;121609789</text>
</g>
<!-- 6&#45;&gt;4 -->
<g id="edge21" class="edge">
<title>6&#45;&gt;4</title>
<path fill="none" stroke="grey" stroke-width="2" d="M492.14,-367.69C480.47,-356.98 465.32,-343.08 452.47,-331.29"/>
<polygon fill="grey" stroke="grey" stroke-width="2" points="454.55,-328.44 444.81,-324.26 449.81,-333.6 454.55,-328.44"/>
</g>
<!-- 9 -->
<g id="node10" class="node">
<title>9</title>
<path fill="none" stroke="#d88d56" stroke-width="2" stroke-dasharray="5,2" d="M547.5,-324C547.5,-324 494.5,-324 494.5,-324 488.5,-324 482.5,-318 482.5,-312 482.5,-312 482.5,-300 482.5,-300 482.5,-294 488.5,-288 494.5,-288 494.5,-288 547.5,-288 547.5,-288 553.5,-288 559.5,-294 559.5,-300 559.5,-300 559.5,-312 559.5,-312 559.5,-318 553.5,-324 547.5,-324"/>
<text text-anchor="middle" x="521" y="-303.5" font-family="sans" font-size="10.00">get_haptags</text>
</g>
<!-- 6&#45;&gt;9 -->
<g id="edge25" class="edge">
<title>6&#45;&gt;9</title>
<path fill="none" stroke="grey" stroke-width="2" d="M513.22,-367.69C514.48,-357.89 516.07,-345.42 517.5,-334.33"/>
<polygon fill="grey" stroke="grey" stroke-width="2" points="520.99,-334.63 518.79,-324.26 514.04,-333.74 520.99,-334.63"/>
</g>
<!-- 13 -->
<g id="node14" class="node">
<title>13</title>
<path fill="none" stroke="#d88d56" stroke-width="2" stroke-dasharray="5,2" d="M745.5,-324C745.5,-324 692.5,-324 692.5,-324 686.5,-324 680.5,-318 680.5,-312 680.5,-312 680.5,-300 680.5,-300 680.5,-294 686.5,-288 692.5,-288 692.5,-288 745.5,-288 745.5,-288 751.5,-288 757.5,-294 757.5,-300 757.5,-300 757.5,-312 757.5,-312 757.5,-318 751.5,-324 745.5,-324"/>
<text text-anchor="middle" x="719" y="-303.5" font-family="sans" font-size="10.00">get_haptags</text>
</g>
<!-- 6&#45;&gt;13 -->
<g id="edge29" class="edge">
<title>6&#45;&gt;13</title>
<path fill="none" stroke="grey" stroke-width="2" d="M556.39,-367.98C590.26,-355.28 636.45,-337.96 670.94,-325.02"/>
<polygon fill="grey" stroke="grey" stroke-width="2" points="672.21,-328.29 680.34,-321.5 669.75,-321.73 672.21,-328.29"/>
</g>
<!-- 17 -->
<g id="node18" class="node">
<title>17</title>
<path fill="none" stroke="#d88d56" stroke-width="2" stroke-dasharray="5,2" d="M953.5,-324C953.5,-324 900.5,-324 900.5,-324 894.5,-324 888.5,-318 888.5,-312 888.5,-312 888.5,-300 888.5,-300 888.5,-294 894.5,-288 900.5,-288 900.5,-288 953.5,-288 953.5,-288 959.5,-288 965.5,-294 965.5,-300 965.5,-300 965.5,-312 965.5,-312 965.5,-318 959.5,-324 953.5,-324"/>
<text text-anchor="middle" x="927" y="-303.5" font-family="sans" font-size="10.00">get_haptags</text>
</g>
<!-- 6&#45;&gt;17 -->
<g id="edge33" class="edge">
<title>6&#45;&gt;17</title>
<path fill="none" stroke="grey" stroke-width="2" d="M578.82,-368C590.84,-365.18 603.27,-362.4 615,-360 707.6,-341.03 816.66,-323.62 878.22,-314.24"/>
<polygon fill="grey" stroke="grey" stroke-width="2" points="879.06,-317.65 888.42,-312.69 878.01,-310.73 879.06,-317.65"/>
</g>
<!-- 7 -->
<g id="node8" class="node">
<title>7</title>
<path fill="none" stroke="#88d856" stroke-width="2" d="M776.5,-180C776.5,-180 709.5,-180 709.5,-180 703.5,-180 697.5,-174 697.5,-168 697.5,-168 697.5,-156 697.5,-156 697.5,-150 703.5,-144 709.5,-144 709.5,-144 776.5,-144 776.5,-144 782.5,-144 788.5,-150 788.5,-156 788.5,-156 788.5,-168 788.5,-168 788.5,-174 782.5,-180 776.5,-180"/>
<text text-anchor="middle" x="743" y="-159.5" font-family="sans" font-size="10.00">get_action_line</text>
</g>
<!-- 7&#45;&gt;0 -->
<g id="edge3" class="edge">
<title>7&#45;&gt;0</title>
<path fill="none" stroke="grey" stroke-width="2" d="M771.41,-143.96C802.41,-125.56 853.69,-95.7 899,-72 923.56,-59.15 951.75,-45.71 973.57,-35.58"/>
<polygon fill="grey" stroke="grey" stroke-width="2" points="975.2,-38.68 982.81,-31.31 972.27,-32.32 975.2,-38.68"/>
</g>
<!-- 7&#45;&gt;1 -->
<g id="edge11" class="edge">
<title>7&#45;&gt;1</title>
<path fill="none" stroke="grey" stroke-width="2" d="M788.61,-146.43C791.44,-145.59 794.26,-144.77 797,-144 848.45,-129.52 907.46,-114.99 950.3,-104.82"/>
<polygon fill="grey" stroke="grey" stroke-width="2" points="951.35,-108.17 960.28,-102.46 949.74,-101.36 951.35,-108.17"/>
</g>
<!-- 8 -->
<g id="node9" class="node">
<title>8</title>
<path fill="none" stroke="#56c1d8" stroke-width="2" d="M690.5,-252C690.5,-252 615.5,-252 615.5,-252 609.5,-252 603.5,-246 603.5,-240 603.5,-240 603.5,-228 603.5,-228 603.5,-222 609.5,-216 615.5,-216 615.5,-216 690.5,-216 690.5,-216 696.5,-216 702.5,-222 702.5,-228 702.5,-228 702.5,-240 702.5,-240 702.5,-246 696.5,-252 690.5,-252"/>
<text text-anchor="middle" x="653" y="-231.5" font-family="sans" font-size="10.00">get_summarylist</text>
</g>
<!-- 8&#45;&gt;7 -->
<g id="edge22" class="edge">
<title>8&#45;&gt;7</title>
<path fill="none" stroke="grey" stroke-width="2" d="M675.25,-215.7C686.58,-206.88 700.53,-196.03 712.82,-186.47"/>
<polygon fill="grey" stroke="grey" stroke-width="2" points="715.26,-189.01 721.01,-180.1 710.97,-183.48 715.26,-189.01"/>
</g>
<!-- 9&#45;&gt;8 -->
<g id="edge23" class="edge">
<title>9&#45;&gt;8</title>
<path fill="none" stroke="grey" stroke-width="2" d="M553.29,-287.88C570.87,-278.55 592.81,-266.92 611.63,-256.94"/>
<polygon fill="grey" stroke="grey" stroke-width="2" points="613.39,-259.97 620.59,-252.19 610.11,-253.78 613.39,-259.97"/>
</g>
<!-- 10 -->
<g id="node11" class="node">
<title>10</title>
<path fill="none" stroke="#d8bc56" stroke-width="2" stroke-dasharray="5,2" d="M386,-412C386,-412 220,-412 220,-412 214,-412 208,-406 208,-400 208,-400 208,-372 208,-372 208,-366 214,-360 220,-360 220,-360 386,-360 386,-360 392,-360 398,-366 398,-372 398,-372 398,-400 398,-400 398,-406 392,-412 386,-412"/>
<text text-anchor="middle" x="303" y="-400" font-family="sans" font-size="10.00">get_bam</text>
<text text-anchor="middle" x="303" y="-389" font-family="sans" font-size="10.00">hap: 2</text>
<text text-anchor="middle" x="303" y="-378" font-family="sans" font-size="10.00">region: chr1&#45;119747586&#45;121609789</text>
<text text-anchor="middle" x="303" y="-367" font-family="sans" font-size="10.00">sample: GM19129</text>
</g>
<!-- 10&#45;&gt;9 -->
<g id="edge24" class="edge">
<title>10&#45;&gt;9</title>
<path fill="none" stroke="grey" stroke-width="2" d="M372.88,-360C405.44,-348.35 443.37,-334.78 472.69,-324.28"/>
<polygon fill="grey" stroke="grey" stroke-width="2" points="474.05,-327.52 482.29,-320.85 471.69,-320.92 474.05,-327.52"/>
</g>
<!-- 11 -->
<g id="node12" class="node">
<title>11</title>
<path fill="none" stroke="#88d856" stroke-width="2" d="M885.5,-180C885.5,-180 818.5,-180 818.5,-180 812.5,-180 806.5,-174 806.5,-168 806.5,-168 806.5,-156 806.5,-156 806.5,-150 812.5,-144 818.5,-144 818.5,-144 885.5,-144 885.5,-144 891.5,-144 897.5,-150 897.5,-156 897.5,-156 897.5,-168 897.5,-168 897.5,-174 891.5,-180 885.5,-180"/>
<text text-anchor="middle" x="852" y="-159.5" font-family="sans" font-size="10.00">get_action_line</text>
</g>
<!-- 11&#45;&gt;0 -->
<g id="edge4" class="edge">
<title>11&#45;&gt;0</title>
<path fill="none" stroke="grey" stroke-width="2" d="M868.03,-144C885.61,-125.62 914.93,-95.79 942,-72 953.58,-61.82 966.85,-51.26 978.58,-42.26"/>
<polygon fill="grey" stroke="grey" stroke-width="2" points="980.95,-44.85 986.79,-36.02 976.71,-39.28 980.95,-44.85"/>
</g>
<!-- 11&#45;&gt;1 -->
<g id="edge12" class="edge">
<title>11&#45;&gt;1</title>
<path fill="none" stroke="grey" stroke-width="2" d="M890.65,-143.88C912.25,-134.31 939.35,-122.3 962.27,-112.15"/>
<polygon fill="grey" stroke="grey" stroke-width="2" points="963.75,-115.32 971.47,-108.07 960.91,-108.92 963.75,-115.32"/>
</g>
<!-- 12 -->
<g id="node13" class="node">
<title>12</title>
<path fill="none" stroke="#56c1d8" stroke-width="2" d="M847.5,-252C847.5,-252 772.5,-252 772.5,-252 766.5,-252 760.5,-246 760.5,-240 760.5,-240 760.5,-228 760.5,-228 760.5,-222 766.5,-216 772.5,-216 772.5,-216 847.5,-216 847.5,-216 853.5,-216 859.5,-222 859.5,-228 859.5,-228 859.5,-240 859.5,-240 859.5,-246 853.5,-252 847.5,-252"/>
<text text-anchor="middle" x="810" y="-231.5" font-family="sans" font-size="10.00">get_summarylist</text>
</g>
<!-- 12&#45;&gt;11 -->
<g id="edge26" class="edge">
<title>12&#45;&gt;11</title>
<path fill="none" stroke="grey" stroke-width="2" d="M820.38,-215.7C825.26,-207.56 831.19,-197.69 836.58,-188.7"/>
<polygon fill="grey" stroke="grey" stroke-width="2" points="839.59,-190.48 841.74,-180.1 833.59,-186.88 839.59,-190.48"/>
</g>
<!-- 13&#45;&gt;12 -->
<g id="edge27" class="edge">
<title>13&#45;&gt;12</title>
<path fill="none" stroke="grey" stroke-width="2" d="M741.49,-287.7C752.96,-278.88 767.06,-268.03 779.48,-258.47"/>
<polygon fill="grey" stroke="grey" stroke-width="2" points="781.97,-260.98 787.76,-252.1 777.7,-255.43 781.97,-260.98"/>
</g>
<!-- 14 -->
<g id="node15" class="node">
<title>14</title>
<path fill="none" stroke="#d8bc56" stroke-width="2" stroke-dasharray="5,2" d="M802,-412C802,-412 636,-412 636,-412 630,-412 624,-406 624,-400 624,-400 624,-372 624,-372 624,-366 630,-360 636,-360 636,-360 802,-360 802,-360 808,-360 814,-366 814,-372 814,-372 814,-400 814,-400 814,-406 808,-412 802,-412"/>
<text text-anchor="middle" x="719" y="-400" font-family="sans" font-size="10.00">get_bam</text>
<text text-anchor="middle" x="719" y="-389" font-family="sans" font-size="10.00">hap: 1</text>
<text text-anchor="middle" x="719" y="-378" font-family="sans" font-size="10.00">region: chr1&#45;119747586&#45;121609789</text>
<text text-anchor="middle" x="719" y="-367" font-family="sans" font-size="10.00">sample: HG00512</text>
</g>
<!-- 14&#45;&gt;13 -->
<g id="edge28" class="edge">
<title>14&#45;&gt;13</title>
<path fill="none" stroke="grey" stroke-width="2" d="M719,-359.89C719,-351.84 719,-342.88 719,-334.66"/>
<polygon fill="grey" stroke="grey" stroke-width="2" points="722.5,-334.41 719,-324.41 715.5,-334.41 722.5,-334.41"/>
</g>
<!-- 15 -->
<g id="node16" class="node">
<title>15</title>
<path fill="none" stroke="#88d856" stroke-width="2" d="M994.5,-180C994.5,-180 927.5,-180 927.5,-180 921.5,-180 915.5,-174 915.5,-168 915.5,-168 915.5,-156 915.5,-156 915.5,-150 921.5,-144 927.5,-144 927.5,-144 994.5,-144 994.5,-144 1000.5,-144 1006.5,-150 1006.5,-156 1006.5,-156 1006.5,-168 1006.5,-168 1006.5,-174 1000.5,-180 994.5,-180"/>
<text text-anchor="middle" x="961" y="-159.5" font-family="sans" font-size="10.00">get_action_line</text>
</g>
<!-- 15&#45;&gt;0 -->
<g id="edge5" class="edge">
<title>15&#45;&gt;0</title>
<path fill="none" stroke="grey" stroke-width="2" d="M954.37,-143.81C948.31,-125.28 941.73,-95.31 952,-72 957.03,-60.59 965.86,-50.57 975.14,-42.41"/>
<polygon fill="grey" stroke="grey" stroke-width="2" points="977.45,-45.04 982.96,-35.99 973.01,-39.62 977.45,-45.04"/>
</g>
<!-- 15&#45;&gt;1 -->
<g id="edge13" class="edge">
<title>15&#45;&gt;1</title>
<path fill="none" stroke="grey" stroke-width="2" d="M973.11,-143.7C978.87,-135.47 985.86,-125.48 992.21,-116.42"/>
<polygon fill="grey" stroke="grey" stroke-width="2" points="995.16,-118.3 998.03,-108.1 989.42,-114.29 995.16,-118.3"/>
</g>
<!-- 16 -->
<g id="node17" class="node">
<title>16</title>
<path fill="none" stroke="#56c1d8" stroke-width="2" d="M984.5,-252C984.5,-252 909.5,-252 909.5,-252 903.5,-252 897.5,-246 897.5,-240 897.5,-240 897.5,-228 897.5,-228 897.5,-222 903.5,-216 909.5,-216 909.5,-216 984.5,-216 984.5,-216 990.5,-216 996.5,-222 996.5,-228 996.5,-228 996.5,-240 996.5,-240 996.5,-246 990.5,-252 984.5,-252"/>
<text text-anchor="middle" x="947" y="-231.5" font-family="sans" font-size="10.00">get_summarylist</text>
</g>
<!-- 16&#45;&gt;15 -->
<g id="edge30" class="edge">
<title>16&#45;&gt;15</title>
<path fill="none" stroke="grey" stroke-width="2" d="M950.46,-215.7C952,-207.98 953.86,-198.71 955.58,-190.11"/>
<polygon fill="grey" stroke="grey" stroke-width="2" points="959.05,-190.6 957.58,-180.1 952.19,-189.22 959.05,-190.6"/>
</g>
<!-- 17&#45;&gt;16 -->
<g id="edge31" class="edge">
<title>17&#45;&gt;16</title>
<path fill="none" stroke="grey" stroke-width="2" d="M931.94,-287.7C934.17,-279.9 936.85,-270.51 939.33,-261.83"/>
<polygon fill="grey" stroke="grey" stroke-width="2" points="942.73,-262.68 942.11,-252.1 936,-260.76 942.73,-262.68"/>
</g>
<!-- 18 -->
<g id="node19" class="node">
<title>18</title>
<path fill="none" stroke="#d8bc56" stroke-width="2" stroke-dasharray="5,2" d="M1010,-412C1010,-412 844,-412 844,-412 838,-412 832,-406 832,-400 832,-400 832,-372 832,-372 832,-366 838,-360 844,-360 844,-360 1010,-360 1010,-360 1016,-360 1022,-366 1022,-372 1022,-372 1022,-400 1022,-400 1022,-406 1016,-412 1010,-412"/>
<text text-anchor="middle" x="927" y="-400" font-family="sans" font-size="10.00">get_bam</text>
<text text-anchor="middle" x="927" y="-389" font-family="sans" font-size="10.00">hap: 2</text>
<text text-anchor="middle" x="927" y="-378" font-family="sans" font-size="10.00">region: chr1&#45;119747586&#45;121609789</text>
<text text-anchor="middle" x="927" y="-367" font-family="sans" font-size="10.00">sample: HG00512</text>
</g>
<!-- 18&#45;&gt;17 -->
<g id="edge32" class="edge">
<title>18&#45;&gt;17</title>
<path fill="none" stroke="grey" stroke-width="2" d="M927,-359.89C927,-351.84 927,-342.88 927,-334.66"/>
<polygon fill="grey" stroke="grey" stroke-width="2" points="930.5,-334.41 927,-324.41 923.5,-334.41 930.5,-334.41"/>
</g>
<!-- 19 -->
<g id="node20" class="node">
<title>19</title>
<path fill="none" stroke="#88d856" stroke-width="2" d="M1103.5,-180C1103.5,-180 1036.5,-180 1036.5,-180 1030.5,-180 1024.5,-174 1024.5,-168 1024.5,-168 1024.5,-156 1024.5,-156 1024.5,-150 1030.5,-144 1036.5,-144 1036.5,-144 1103.5,-144 1103.5,-144 1109.5,-144 1115.5,-150 1115.5,-156 1115.5,-156 1115.5,-168 1115.5,-168 1115.5,-174 1109.5,-180 1103.5,-180"/>
<text text-anchor="middle" x="1070" y="-159.5" font-family="sans" font-size="10.00">get_action_line</text>
</g>
<!-- 19&#45;&gt;0 -->
<g id="edge6" class="edge">
<title>19&#45;&gt;0</title>
<path fill="none" stroke="grey" stroke-width="2" d="M1073.75,-143.72C1076.92,-125.12 1079.45,-95.09 1069,-72 1063.77,-60.44 1054.65,-50.33 1045.13,-42.13"/>
<polygon fill="grey" stroke="grey" stroke-width="2" points="1047.1,-39.22 1037.11,-35.7 1042.72,-44.68 1047.1,-39.22"/>
</g>
<!-- 19&#45;&gt;1 -->
<g id="edge14" class="edge">
<title>19&#45;&gt;1</title>
<path fill="none" stroke="grey" stroke-width="2" d="M1055.17,-143.7C1047.98,-135.3 1039.2,-125.07 1031.31,-115.86"/>
<polygon fill="grey" stroke="grey" stroke-width="2" points="1033.83,-113.42 1024.66,-108.1 1028.51,-117.97 1033.83,-113.42"/>
</g>
<!-- 20 -->
<g id="node21" class="node">
<title>20</title>
<path fill="none" stroke="#56c1d8" stroke-width="2" d="M1122.5,-252C1122.5,-252 1047.5,-252 1047.5,-252 1041.5,-252 1035.5,-246 1035.5,-240 1035.5,-240 1035.5,-228 1035.5,-228 1035.5,-222 1041.5,-216 1047.5,-216 1047.5,-216 1122.5,-216 1122.5,-216 1128.5,-216 1134.5,-222 1134.5,-228 1134.5,-228 1134.5,-240 1134.5,-240 1134.5,-246 1128.5,-252 1122.5,-252"/>
<text text-anchor="middle" x="1085" y="-231.5" font-family="sans" font-size="10.00">get_summarylist</text>
</g>
<!-- 20&#45;&gt;19 -->
<g id="edge34" class="edge">
<title>20&#45;&gt;19</title>
<path fill="none" stroke="grey" stroke-width="2" d="M1081.29,-215.7C1079.64,-207.98 1077.65,-198.71 1075.81,-190.11"/>
<polygon fill="grey" stroke="grey" stroke-width="2" points="1079.18,-189.15 1073.67,-180.1 1072.34,-190.62 1079.18,-189.15"/>
</g>
<!-- 21 -->
<g id="node22" class="node">
<title>21</title>
<path fill="none" stroke="#d88d56" stroke-width="2" d="M1152.5,-324C1152.5,-324 1099.5,-324 1099.5,-324 1093.5,-324 1087.5,-318 1087.5,-312 1087.5,-312 1087.5,-300 1087.5,-300 1087.5,-294 1093.5,-288 1099.5,-288 1099.5,-288 1152.5,-288 1152.5,-288 1158.5,-288 1164.5,-294 1164.5,-300 1164.5,-300 1164.5,-312 1164.5,-312 1164.5,-318 1158.5,-324 1152.5,-324"/>
<text text-anchor="middle" x="1126" y="-303.5" font-family="sans" font-size="10.00">get_haptags</text>
</g>
<!-- 21&#45;&gt;20 -->
<g id="edge35" class="edge">
<title>21&#45;&gt;20</title>
<path fill="none" stroke="grey" stroke-width="2" d="M1115.87,-287.7C1111.15,-279.64 1105.44,-269.89 1100.22,-260.98"/>
<polygon fill="grey" stroke="grey" stroke-width="2" points="1103.09,-258.96 1095.02,-252.1 1097.05,-262.5 1103.09,-258.96"/>
</g>
<!-- 22 -->
<g id="node23" class="node">
<title>22</title>
<path fill="none" stroke="#d8bc56" stroke-width="2" d="M1200,-412C1200,-412 1052,-412 1052,-412 1046,-412 1040,-406 1040,-400 1040,-400 1040,-372 1040,-372 1040,-366 1046,-360 1052,-360 1052,-360 1200,-360 1200,-360 1206,-360 1212,-366 1212,-372 1212,-372 1212,-400 1212,-400 1212,-406 1206,-412 1200,-412"/>
<text text-anchor="middle" x="1126" y="-400" font-family="sans" font-size="10.00">get_bam</text>
<text text-anchor="middle" x="1126" y="-389" font-family="sans" font-size="10.00">hap: 1</text>
<text text-anchor="middle" x="1126" y="-378" font-family="sans" font-size="10.00">region: chr11&#45;4186831&#45;4372820</text>
<text text-anchor="middle" x="1126" y="-367" font-family="sans" font-size="10.00">sample: GM19129</text>
</g>
<!-- 22&#45;&gt;21 -->
<g id="edge36" class="edge">
<title>22&#45;&gt;21</title>
<path fill="none" stroke="grey" stroke-width="2" d="M1126,-359.89C1126,-351.84 1126,-342.88 1126,-334.66"/>
<polygon fill="grey" stroke="grey" stroke-width="2" points="1129.5,-334.41 1126,-324.41 1122.5,-334.41 1129.5,-334.41"/>
</g>
<!-- 23 -->
<g id="node24" class="node">
<title>23</title>
<path fill="none" stroke="#56d88a" stroke-width="2" stroke-dasharray="5,2" d="M1580,-404C1580,-404 1432,-404 1432,-404 1426,-404 1420,-398 1420,-392 1420,-392 1420,-380 1420,-380 1420,-374 1426,-368 1432,-368 1432,-368 1580,-368 1580,-368 1586,-368 1592,-374 1592,-380 1592,-380 1592,-392 1592,-392 1592,-398 1586,-404 1580,-404"/>
<text text-anchor="middle" x="1506" y="-389" font-family="sans" font-size="10.00">subset_vcf_to_region</text>
<text text-anchor="middle" x="1506" y="-378" font-family="sans" font-size="10.00">region: chr11&#45;4186831&#45;4372820</text>
</g>
<!-- 23&#45;&gt;21 -->
<g id="edge37" class="edge">
<title>23&#45;&gt;21</title>
<path fill="none" stroke="grey" stroke-width="2" d="M1443.82,-367.94C1432.91,-365.14 1421.65,-362.39 1411,-360 1328.71,-341.55 1232.04,-324.54 1175.07,-315"/>
<polygon fill="grey" stroke="grey" stroke-width="2" points="1175.35,-311.5 1164.91,-313.3 1174.19,-318.4 1175.35,-311.5"/>
</g>
<!-- 26 -->
<g id="node27" class="node">
<title>26</title>
<path fill="none" stroke="#d88d56" stroke-width="2" d="M1342.5,-324C1342.5,-324 1289.5,-324 1289.5,-324 1283.5,-324 1277.5,-318 1277.5,-312 1277.5,-312 1277.5,-300 1277.5,-300 1277.5,-294 1283.5,-288 1289.5,-288 1289.5,-288 1342.5,-288 1342.5,-288 1348.5,-288 1354.5,-294 1354.5,-300 1354.5,-300 1354.5,-312 1354.5,-312 1354.5,-318 1348.5,-324 1342.5,-324"/>
<text text-anchor="middle" x="1316" y="-303.5" font-family="sans" font-size="10.00">get_haptags</text>
</g>
<!-- 23&#45;&gt;26 -->
<g id="edge41" class="edge">
<title>23&#45;&gt;26</title>
<path fill="none" stroke="grey" stroke-width="2" d="M1464.3,-367.88C1434.7,-355.73 1394.9,-339.39 1363.98,-326.7"/>
<polygon fill="grey" stroke="grey" stroke-width="2" points="1365.27,-323.44 1354.69,-322.88 1362.61,-329.92 1365.27,-323.44"/>
</g>
<!-- 30 -->
<g id="node31" class="node">
<title>30</title>
<path fill="none" stroke="#d88d56" stroke-width="2" d="M1484.5,-324C1484.5,-324 1431.5,-324 1431.5,-324 1425.5,-324 1419.5,-318 1419.5,-312 1419.5,-312 1419.5,-300 1419.5,-300 1419.5,-294 1425.5,-288 1431.5,-288 1431.5,-288 1484.5,-288 1484.5,-288 1490.5,-288 1496.5,-294 1496.5,-300 1496.5,-300 1496.5,-312 1496.5,-312 1496.5,-318 1490.5,-324 1484.5,-324"/>
<text text-anchor="middle" x="1458" y="-303.5" font-family="sans" font-size="10.00">get_haptags</text>
</g>
<!-- 23&#45;&gt;30 -->
<g id="edge45" class="edge">
<title>23&#45;&gt;30</title>
<path fill="none" stroke="grey" stroke-width="2" d="M1495.35,-367.69C1489.07,-357.49 1481.01,-344.39 1473.98,-332.97"/>
<polygon fill="grey" stroke="grey" stroke-width="2" points="1476.84,-330.94 1468.62,-324.26 1470.88,-334.61 1476.84,-330.94"/>
</g>
<!-- 34 -->
<g id="node35" class="node">
<title>34</title>
<path fill="none" stroke="#d88d56" stroke-width="2" d="M1579.5,-324C1579.5,-324 1526.5,-324 1526.5,-324 1520.5,-324 1514.5,-318 1514.5,-312 1514.5,-312 1514.5,-300 1514.5,-300 1514.5,-294 1520.5,-288 1526.5,-288 1526.5,-288 1579.5,-288 1579.5,-288 1585.5,-288 1591.5,-294 1591.5,-300 1591.5,-300 1591.5,-312 1591.5,-312 1591.5,-318 1585.5,-324 1579.5,-324"/>
<text text-anchor="middle" x="1553" y="-303.5" font-family="sans" font-size="10.00">get_haptags</text>
</g>
<!-- 23&#45;&gt;34 -->
<g id="edge49" class="edge">
<title>23&#45;&gt;34</title>
<path fill="none" stroke="grey" stroke-width="2" d="M1516.43,-367.69C1522.58,-357.49 1530.47,-344.39 1537.35,-332.97"/>
<polygon fill="grey" stroke="grey" stroke-width="2" points="1540.44,-334.63 1542.6,-324.26 1534.44,-331.02 1540.44,-334.63"/>
</g>
<!-- 24 -->
<g id="node25" class="node">
<title>24</title>
<path fill="none" stroke="#88d856" stroke-width="2" d="M1212.5,-180C1212.5,-180 1145.5,-180 1145.5,-180 1139.5,-180 1133.5,-174 1133.5,-168 1133.5,-168 1133.5,-156 1133.5,-156 1133.5,-150 1139.5,-144 1145.5,-144 1145.5,-144 1212.5,-144 1212.5,-144 1218.5,-144 1224.5,-150 1224.5,-156 1224.5,-156 1224.5,-168 1224.5,-168 1224.5,-174 1218.5,-180 1212.5,-180"/>
<text text-anchor="middle" x="1179" y="-159.5" font-family="sans" font-size="10.00">get_action_line</text>
</g>
<!-- 24&#45;&gt;0 -->
<g id="edge7" class="edge">
<title>24&#45;&gt;0</title>
<path fill="none" stroke="grey" stroke-width="2" d="M1162.59,-143.78C1144.55,-125.22 1114.36,-95.22 1086,-72 1073.14,-61.47 1058.27,-50.8 1045.12,-41.82"/>
<polygon fill="grey" stroke="grey" stroke-width="2" points="1047.01,-38.87 1036.76,-36.19 1043.09,-44.68 1047.01,-38.87"/>
</g>
<!-- 24&#45;&gt;1 -->
<g id="edge15" class="edge">
<title>24&#45;&gt;1</title>
<path fill="none" stroke="grey" stroke-width="2" d="M1137.66,-143.88C1114.45,-134.26 1085.31,-122.19 1060.73,-112.01"/>
<polygon fill="grey" stroke="grey" stroke-width="2" points="1061.79,-108.66 1051.21,-108.07 1059.11,-115.13 1061.79,-108.66"/>
</g>
<!-- 25 -->
<g id="node26" class="node">
<title>25</title>
<path fill="none" stroke="#56c1d8" stroke-width="2" d="M1272.5,-252C1272.5,-252 1197.5,-252 1197.5,-252 1191.5,-252 1185.5,-246 1185.5,-240 1185.5,-240 1185.5,-228 1185.5,-228 1185.5,-222 1191.5,-216 1197.5,-216 1197.5,-216 1272.5,-216 1272.5,-216 1278.5,-216 1284.5,-222 1284.5,-228 1284.5,-228 1284.5,-240 1284.5,-240 1284.5,-246 1278.5,-252 1272.5,-252"/>
<text text-anchor="middle" x="1235" y="-231.5" font-family="sans" font-size="10.00">get_summarylist</text>
</g>
<!-- 25&#45;&gt;24 -->
<g id="edge38" class="edge">
<title>25&#45;&gt;24</title>
<path fill="none" stroke="grey" stroke-width="2" d="M1221.16,-215.7C1214.51,-207.39 1206.42,-197.28 1199.11,-188.14"/>
<polygon fill="grey" stroke="grey" stroke-width="2" points="1201.66,-185.73 1192.68,-180.1 1196.2,-190.1 1201.66,-185.73"/>
</g>
<!-- 26&#45;&gt;25 -->
<g id="edge39" class="edge">
<title>26&#45;&gt;25</title>
<path fill="none" stroke="grey" stroke-width="2" d="M1295.98,-287.7C1285.87,-278.97 1273.46,-268.24 1262.48,-258.75"/>
<polygon fill="grey" stroke="grey" stroke-width="2" points="1264.65,-255.99 1254.79,-252.1 1260.07,-261.29 1264.65,-255.99"/>
</g>
<!-- 27 -->
<g id="node28" class="node">
<title>27</title>
<path fill="none" stroke="#d8bc56" stroke-width="2" d="M1390,-412C1390,-412 1242,-412 1242,-412 1236,-412 1230,-406 1230,-400 1230,-400 1230,-372 1230,-372 1230,-366 1236,-360 1242,-360 1242,-360 1390,-360 1390,-360 1396,-360 1402,-366 1402,-372 1402,-372 1402,-400 1402,-400 1402,-406 1396,-412 1390,-412"/>
<text text-anchor="middle" x="1316" y="-400" font-family="sans" font-size="10.00">get_bam</text>
<text text-anchor="middle" x="1316" y="-389" font-family="sans" font-size="10.00">hap: 2</text>
<text text-anchor="middle" x="1316" y="-378" font-family="sans" font-size="10.00">region: chr11&#45;4186831&#45;4372820</text>
<text text-anchor="middle" x="1316" y="-367" font-family="sans" font-size="10.00">sample: GM19129</text>
</g>
<!-- 27&#45;&gt;26 -->
<g id="edge40" class="edge">
<title>27&#45;&gt;26</title>
<path fill="none" stroke="grey" stroke-width="2" d="M1316,-359.89C1316,-351.84 1316,-342.88 1316,-334.66"/>
<polygon fill="grey" stroke="grey" stroke-width="2" points="1319.5,-334.41 1316,-324.41 1312.5,-334.41 1319.5,-334.41"/>
</g>
<!-- 28 -->
<g id="node29" class="node">
<title>28</title>
<path fill="none" stroke="#88d856" stroke-width="2" d="M1321.5,-180C1321.5,-180 1254.5,-180 1254.5,-180 1248.5,-180 1242.5,-174 1242.5,-168 1242.5,-168 1242.5,-156 1242.5,-156 1242.5,-150 1248.5,-144 1254.5,-144 1254.5,-144 1321.5,-144 1321.5,-144 1327.5,-144 1333.5,-150 1333.5,-156 1333.5,-156 1333.5,-168 1333.5,-168 1333.5,-174 1327.5,-180 1321.5,-180"/>
<text text-anchor="middle" x="1288" y="-159.5" font-family="sans" font-size="10.00">get_action_line</text>
</g>
<!-- 28&#45;&gt;0 -->
<g id="edge8" class="edge">
<title>28&#45;&gt;0</title>
<path fill="none" stroke="grey" stroke-width="2" d="M1256.39,-143.96C1222.55,-125.82 1167.22,-96.41 1119,-72 1095.07,-59.88 1067.94,-46.69 1046.74,-36.5"/>
<polygon fill="grey" stroke="grey" stroke-width="2" points="1047.98,-33.21 1037.45,-32.04 1044.95,-39.52 1047.98,-33.21"/>
</g>
<!-- 28&#45;&gt;1 -->
<g id="edge16" class="edge">
<title>28&#45;&gt;1</title>
<path fill="none" stroke="grey" stroke-width="2" d="M1242.4,-146.39C1239.57,-145.56 1236.75,-144.76 1234,-144 1178.66,-128.76 1114.9,-113.94 1069.59,-103.86"/>
<polygon fill="grey" stroke="grey" stroke-width="2" points="1070.16,-100.4 1059.64,-101.66 1068.65,-107.24 1070.16,-100.4"/>
</g>
<!-- 29 -->
<g id="node30" class="node">
<title>29</title>
<path fill="none" stroke="#56c1d8" stroke-width="2" d="M1424.5,-252C1424.5,-252 1349.5,-252 1349.5,-252 1343.5,-252 1337.5,-246 1337.5,-240 1337.5,-240 1337.5,-228 1337.5,-228 1337.5,-222 1343.5,-216 1349.5,-216 1349.5,-216 1424.5,-216 1424.5,-216 1430.5,-216 1436.5,-222 1436.5,-228 1436.5,-228 1436.5,-240 1436.5,-240 1436.5,-246 1430.5,-252 1424.5,-252"/>
<text text-anchor="middle" x="1387" y="-231.5" font-family="sans" font-size="10.00">get_summarylist</text>
</g>
<!-- 29&#45;&gt;28 -->
<g id="edge42" class="edge">
<title>29&#45;&gt;28</title>
<path fill="none" stroke="grey" stroke-width="2" d="M1362.78,-215.88C1350.08,-206.89 1334.34,-195.76 1320.58,-186.03"/>
<polygon fill="grey" stroke="grey" stroke-width="2" points="1322.5,-183.11 1312.31,-180.19 1318.46,-188.82 1322.5,-183.11"/>
</g>
<!-- 30&#45;&gt;29 -->
<g id="edge43" class="edge">
<title>30&#45;&gt;29</title>
<path fill="none" stroke="grey" stroke-width="2" d="M1440.45,-287.7C1431.77,-279.14 1421.14,-268.66 1411.65,-259.3"/>
<polygon fill="grey" stroke="grey" stroke-width="2" points="1413.93,-256.63 1404.35,-252.1 1409.01,-261.62 1413.93,-256.63"/>
</g>
<!-- 31 -->
<g id="node32" class="node">
<title>31</title>
<path fill="none" stroke="#d8bc56" stroke-width="2" d="M1770,-412C1770,-412 1622,-412 1622,-412 1616,-412 1610,-406 1610,-400 1610,-400 1610,-372 1610,-372 1610,-366 1616,-360 1622,-360 1622,-360 1770,-360 1770,-360 1776,-360 1782,-366 1782,-372 1782,-372 1782,-400 1782,-400 1782,-406 1776,-412 1770,-412"/>
<text text-anchor="middle" x="1696" y="-400" font-family="sans" font-size="10.00">get_bam</text>
<text text-anchor="middle" x="1696" y="-389" font-family="sans" font-size="10.00">hap: 1</text>
<text text-anchor="middle" x="1696" y="-378" font-family="sans" font-size="10.00">region: chr11&#45;4186831&#45;4372820</text>
<text text-anchor="middle" x="1696" y="-367" font-family="sans" font-size="10.00">sample: HG00512</text>
</g>
<!-- 31&#45;&gt;30 -->
<g id="edge44" class="edge">
<title>31&#45;&gt;30</title>
<path fill="none" stroke="grey" stroke-width="2" d="M1615.86,-359.85C1584.35,-349.83 1547.69,-337.99 1506.46,-324.11"/>
<polygon fill="grey" stroke="grey" stroke-width="2" points="1507.33,-320.71 1496.74,-320.83 1505.09,-327.35 1507.33,-320.71"/>
</g>
<!-- 32 -->
<g id="node33" class="node">
<title>32</title>
<path fill="none" stroke="#88d856" stroke-width="2" d="M1430.5,-180C1430.5,-180 1363.5,-180 1363.5,-180 1357.5,-180 1351.5,-174 1351.5,-168 1351.5,-168 1351.5,-156 1351.5,-156 1351.5,-150 1357.5,-144 1363.5,-144 1363.5,-144 1430.5,-144 1430.5,-144 1436.5,-144 1442.5,-150 1442.5,-156 1442.5,-156 1442.5,-168 1442.5,-168 1442.5,-174 1436.5,-180 1430.5,-180"/>
<text text-anchor="middle" x="1397" y="-159.5" font-family="sans" font-size="10.00">get_action_line</text>
</g>
<!-- 32&#45;&gt;0 -->
<g id="edge9" class="edge">
<title>32&#45;&gt;0</title>
<path fill="none" stroke="grey" stroke-width="2" d="M1353.99,-143.96C1307.55,-125.68 1231.31,-96.05 1165,-72 1124.83,-57.43 1078.43,-41.71 1046.94,-31.2"/>
<polygon fill="grey" stroke="grey" stroke-width="2" points="1047.86,-27.82 1037.27,-27.99 1045.65,-34.46 1047.86,-27.82"/>
</g>
<!-- 32&#45;&gt;1 -->
<g id="edge17" class="edge">
<title>32&#45;&gt;1</title>
<path fill="none" stroke="grey" stroke-width="2" d="M1351.47,-146.15C1348.61,-145.38 1345.77,-144.65 1343,-144 1248.43,-121.71 1136.5,-106.05 1069.49,-97.78"/>
<polygon fill="grey" stroke="grey" stroke-width="2" points="1069.88,-94.31 1059.53,-96.57 1069.03,-101.26 1069.88,-94.31"/>
</g>
<!-- 33 -->
<g id="node34" class="node">
<title>33</title>
<path fill="none" stroke="#56c1d8" stroke-width="2" d="M1558.5,-252C1558.5,-252 1483.5,-252 1483.5,-252 1477.5,-252 1471.5,-246 1471.5,-240 1471.5,-240 1471.5,-228 1471.5,-228 1471.5,-222 1477.5,-216 1483.5,-216 1483.5,-216 1558.5,-216 1558.5,-216 1564.5,-216 1570.5,-222 1570.5,-228 1570.5,-228 1570.5,-240 1570.5,-240 1570.5,-246 1564.5,-252 1558.5,-252"/>
<text text-anchor="middle" x="1521" y="-231.5" font-family="sans" font-size="10.00">get_summarylist</text>
</g>
<!-- 33&#45;&gt;32 -->
<g id="edge46" class="edge">
<title>33&#45;&gt;32</title>
<path fill="none" stroke="grey" stroke-width="2" d="M1490.67,-215.88C1474.3,-206.64 1453.92,-195.13 1436.35,-185.21"/>
<polygon fill="grey" stroke="grey" stroke-width="2" points="1437.88,-182.06 1427.45,-180.19 1434.44,-188.15 1437.88,-182.06"/>
</g>
<!-- 34&#45;&gt;33 -->
<g id="edge47" class="edge">
<title>34&#45;&gt;33</title>
<path fill="none" stroke="grey" stroke-width="2" d="M1545.09,-287.7C1541.45,-279.73 1537.05,-270.1 1533.01,-261.26"/>
<polygon fill="grey" stroke="grey" stroke-width="2" points="1536.16,-259.74 1528.82,-252.1 1529.79,-262.65 1536.16,-259.74"/>
</g>
<!-- 35 -->
<g id="node36" class="node">
<title>35</title>
<path fill="none" stroke="#d8bc56" stroke-width="2" d="M1960,-412C1960,-412 1812,-412 1812,-412 1806,-412 1800,-406 1800,-400 1800,-400 1800,-372 1800,-372 1800,-366 1806,-360 1812,-360 1812,-360 1960,-360 1960,-360 1966,-360 1972,-366 1972,-372 1972,-372 1972,-400 1972,-400 1972,-406 1966,-412 1960,-412"/>
<text text-anchor="middle" x="1886" y="-400" font-family="sans" font-size="10.00">get_bam</text>
<text text-anchor="middle" x="1886" y="-389" font-family="sans" font-size="10.00">hap: 2</text>
<text text-anchor="middle" x="1886" y="-378" font-family="sans" font-size="10.00">region: chr11&#45;4186831&#45;4372820</text>
<text text-anchor="middle" x="1886" y="-367" font-family="sans" font-size="10.00">sample: HG00512</text>
</g>
<!-- 35&#45;&gt;34 -->
<g id="edge48" class="edge">
<title>35&#45;&gt;34</title>
<path fill="none" stroke="grey" stroke-width="2" d="M1799.82,-362.17C1796.85,-361.43 1793.9,-360.7 1791,-360 1725.71,-344.15 1649.9,-327.58 1601.71,-317.28"/>
<polygon fill="grey" stroke="grey" stroke-width="2" points="1602.37,-313.84 1591.86,-315.18 1600.91,-320.68 1602.37,-313.84"/>
</g>
</g>
</svg>
